<svg width="649" height="92" viewBox="0 0 649 92" fill="none" xmlns="http://www.w3.org/2000/svg">
<path d="M47.896 73.3906C47.896 74.2973 45.2026 74.7506 39.816 74.7506C34.4293 74.7506 31.736 74.2973 31.736 73.3906V54.9906H20.536V73.3906C20.536 74.2973 17.8426 74.7506 12.456 74.7506C7.06931 74.7506 4.37598 74.2973 4.37598 73.3906V20.3506C4.37598 19.2306 7.06931 18.6706 12.456 18.6706C17.8426 18.6706 20.536 19.2306 20.536 20.3506V39.1506H31.736V20.5106C31.736 19.7639 33.0693 19.2306 35.736 18.9106C37.1226 18.8039 38.4826 18.7506 39.816 18.7506L43.896 18.9106C46.5626 19.2306 47.896 19.7639 47.896 20.5106V73.3906ZM93.4603 74.9106C88.8203 74.9106 86.3137 74.1639 85.9403 72.6706L83.3003 62.3506H70.5803L68.2603 72.2706C67.9403 73.9239 65.3803 74.7506 60.5803 74.7506C58.0203 74.7506 56.127 74.6173 54.9003 74.3506C53.6737 74.0306 53.0603 73.7906 53.0603 73.6306L67.2203 19.4706C67.2203 19.0439 70.8737 18.8306 78.1803 18.8306C85.487 18.8306 89.1403 19.0439 89.1403 19.4706L102.98 73.7106C102.98 74.0839 101.754 74.3773 99.3003 74.5906C96.847 74.8039 94.9003 74.9106 93.4603 74.9106ZM72.5803 52.1906H80.9803L77.3803 35.6306H76.9003L72.5803 52.1906ZM115.242 74.9106C110.389 74.9106 107.962 74.3773 107.962 73.3106V21.4706C107.962 19.6573 108.789 18.7506 110.442 18.7506H124.522C132.416 18.7506 138.096 20.3773 141.562 23.6306C145.082 26.8839 146.842 31.6039 146.842 37.7906C146.842 42.9106 145.189 47.6039 141.882 51.8706C140.229 54.0039 137.802 55.7106 134.602 56.9906C131.402 58.2706 127.669 58.9106 123.402 58.9106V73.2306C123.402 73.8706 122.389 74.3239 120.362 74.5906C118.389 74.8039 116.682 74.9106 115.242 74.9106ZM123.402 32.6706V45.3106H124.442C126.309 45.3106 127.882 44.7239 129.162 43.5506C130.442 42.3773 131.082 40.7239 131.082 38.5906C131.082 36.4573 130.629 34.9373 129.722 34.0306C128.869 33.1239 127.322 32.6706 125.082 32.6706H123.402ZM160.867 74.9106C156.014 74.9106 153.587 74.3773 153.587 73.3106V21.4706C153.587 19.6573 154.414 18.7506 156.067 18.7506H170.147C178.041 18.7506 183.721 20.3773 187.187 23.6306C190.707 26.8839 192.467 31.6039 192.467 37.7906C192.467 42.9106 190.814 47.6039 187.507 51.8706C185.854 54.0039 183.427 55.7106 180.227 56.9906C177.027 58.2706 173.294 58.9106 169.027 58.9106V73.2306C169.027 73.8706 168.014 74.3239 165.987 74.5906C164.014 74.8039 162.307 74.9106 160.867 74.9106ZM169.027 32.6706V45.3106H170.067C171.934 45.3106 173.507 44.7239 174.787 43.5506C176.067 42.3773 176.707 40.7239 176.707 38.5906C176.707 36.4573 176.254 34.9373 175.347 34.0306C174.494 33.1239 172.947 32.6706 170.707 32.6706H169.027ZM224.56 21.3906C225.253 19.5239 228.666 18.5906 234.8 18.5906C236.346 18.5906 238.16 18.6973 240.24 18.9106C242.373 19.1239 243.36 19.3906 243.2 19.7106L226.56 53.1506V72.6706C226.56 73.5773 225.093 74.2173 222.16 74.5906C220.666 74.8039 219.2 74.9106 217.76 74.9106C216.32 74.9106 214.88 74.8306 213.44 74.6706C210.506 74.2973 209.04 73.6306 209.04 72.6706V53.6306L191.84 19.8706C191.626 19.5506 192.72 19.2573 195.12 18.9906C197.52 18.6706 199.546 18.5106 201.2 18.5106C207.76 18.5106 211.36 19.4706 212 21.3906L217.84 37.7106L224.56 21.3906ZM300.297 33.2306C300.297 38.7773 297.897 42.9906 293.097 45.8706C295.71 46.8306 297.897 48.4839 299.657 50.8306C301.417 53.1773 302.297 56.5106 302.297 60.8306C302.297 65.0973 300.697 68.4839 297.497 70.9906C294.35 73.4973 289.817 74.7506 283.897 74.7506H265.017C264.11 74.7506 263.363 74.4573 262.777 73.8706C262.19 73.2306 261.897 72.4039 261.897 71.3906V20.1906C261.897 19.6039 261.977 19.2306 262.137 19.0706C262.35 18.8573 262.75 18.7506 263.337 18.7506H281.577C294.057 18.7506 300.297 23.5773 300.297 33.2306ZM277.257 31.7106V42.1906H277.657C282.777 42.1906 285.337 40.4839 285.337 37.0706C285.337 35.2039 284.83 33.8439 283.817 32.9906C282.857 32.1373 281.23 31.7106 278.937 31.7106H277.257ZM277.257 51.6306V62.0306H278.697C280.99 62.0306 282.67 61.6039 283.737 60.7506C284.803 59.8973 285.337 58.5373 285.337 56.6706C285.337 54.8039 284.83 53.4973 283.817 52.7506C282.857 52.0039 281.23 51.6306 278.937 51.6306H277.257ZM313.797 60.9906V32.5106H308.117C307.21 32.5106 306.57 31.3639 306.197 29.0706C306.037 27.9506 305.957 26.8039 305.957 25.6306C305.957 24.4573 306.037 23.3106 306.197 22.1906C306.57 19.8973 307.21 18.7506 308.117 18.7506H334.997C335.903 18.7506 336.517 19.8973 336.837 22.1906C337.05 23.3106 337.157 24.4573 337.157 25.6306C337.157 26.8039 337.05 27.9506 336.837 29.0706C336.517 31.3639 335.903 32.5106 334.997 32.5106H329.637V60.9906H335.237C336.143 60.9906 336.783 62.1373 337.157 64.4306C337.37 65.5506 337.477 66.6973 337.477 67.8706C337.477 69.0439 337.37 70.1906 337.157 71.3106C336.783 73.6039 336.143 74.7506 335.237 74.7506H308.277C307.37 74.7506 306.757 73.6039 306.437 71.3106C306.223 70.1906 306.117 69.0439 306.117 67.8706C306.117 66.6973 306.223 65.5506 306.437 64.4306C306.757 62.1373 307.37 60.9906 308.277 60.9906H313.797ZM358.093 73.6306C358.093 74.4839 355.56 74.9106 350.493 74.9106C345.373 74.9106 342.813 74.5106 342.813 73.7106V21.5506C342.813 19.6839 343.8 18.7506 345.773 18.7506H361.053C375.08 18.7506 382.093 24.2173 382.093 35.1506C382.093 38.4573 381.453 41.4706 380.173 44.1906C378.893 46.8573 377.08 48.9906 374.733 50.5906L384.813 67.3906C384.387 68.6706 383 70.1373 380.653 71.7906C377.453 74.0839 374.813 75.2306 372.733 75.2306C370.653 75.2306 369.107 74.4839 368.093 72.9906L360.573 55.4706H358.093V73.6306ZM358.093 32.9106V44.9106H358.493C363.56 44.9106 366.093 42.8039 366.093 38.5906C366.093 36.6706 365.587 35.2573 364.573 34.3506C363.613 33.3906 362.013 32.9106 359.773 32.9106H358.093ZM414.081 73.4706C414.081 74.5373 411.441 75.0706 406.161 75.0706C400.881 75.0706 398.241 74.5373 398.241 73.4706V33.3106H388.641C387.734 33.3106 387.094 32.0839 386.721 29.6306C386.561 28.4573 386.481 27.2573 386.481 26.0306C386.481 24.8039 386.561 23.6039 386.721 22.4306C387.094 19.9773 387.734 18.7506 388.641 18.7506H423.441C424.348 18.7506 424.988 19.9773 425.361 22.4306C425.521 23.6039 425.601 24.8039 425.601 26.0306C425.601 27.2573 425.521 28.4573 425.361 29.6306C424.988 32.0839 424.348 33.3106 423.441 33.3106H414.081V73.4706ZM473.677 73.3906C473.677 74.2973 470.984 74.7506 465.597 74.7506C460.211 74.7506 457.517 74.2973 457.517 73.3906V54.9906H446.317V73.3906C446.317 74.2973 443.624 74.7506 438.237 74.7506C432.851 74.7506 430.157 74.2973 430.157 73.3906V20.3506C430.157 19.2306 432.851 18.6706 438.237 18.6706C443.624 18.6706 446.317 19.2306 446.317 20.3506V39.1506H457.517V20.5106C457.517 19.7639 458.851 19.2306 461.517 18.9106C462.904 18.8039 464.264 18.7506 465.597 18.7506L469.677 18.9106C472.344 19.2306 473.677 19.7639 473.677 20.5106V73.3906ZM481.642 71.0706V23.0706C481.642 21.7373 481.962 20.6973 482.602 19.9506C483.295 19.1506 484.175 18.7506 485.242 18.7506H498.602C507.082 18.7506 513.508 20.8839 517.882 25.1506C522.308 29.4173 524.522 36.1373 524.522 45.3106C524.522 64.9373 516.148 74.7506 499.402 74.7506H485.722C483.002 74.7506 481.642 73.5239 481.642 71.0706ZM497.002 33.9506V57.8706C497.002 58.9906 497.082 59.7106 497.242 60.0306C497.402 60.2973 497.882 60.4306 498.682 60.4306C501.615 60.4306 503.828 59.3373 505.322 57.1506C506.868 54.9639 507.642 51.3373 507.642 46.2706C507.642 41.1506 506.842 37.8173 505.242 36.2706C503.695 34.7239 501.215 33.9506 497.802 33.9506H497.002ZM568.538 74.9106C563.898 74.9106 561.392 74.1639 561.018 72.6706L558.378 62.3506H545.658L543.338 72.2706C543.018 73.9239 540.458 74.7506 535.658 74.7506C533.098 74.7506 531.205 74.6173 529.978 74.3506C528.752 74.0306 528.138 73.7906 528.138 73.6306L542.298 19.4706C542.298 19.0439 545.952 18.8306 553.258 18.8306C560.565 18.8306 564.218 19.0439 564.218 19.4706L578.058 73.7106C578.058 74.0839 576.832 74.3773 574.378 74.5906C571.925 74.8039 569.978 74.9106 568.538 74.9106ZM547.658 52.1906H556.058L552.458 35.6306H551.978L547.658 52.1906ZM607.997 21.3906C608.69 19.5239 612.104 18.5906 618.237 18.5906C619.784 18.5906 621.597 18.6973 623.677 18.9106C625.81 19.1239 626.797 19.3906 626.637 19.7106L609.997 53.1506V72.6706C609.997 73.5773 608.53 74.2173 605.597 74.5906C604.104 74.8039 602.637 74.9106 601.197 74.9106C599.757 74.9106 598.317 74.8306 596.877 74.6706C593.944 74.2973 592.477 73.6306 592.477 72.6706V53.6306L575.277 19.8706C575.064 19.5506 576.157 19.2573 578.557 18.9906C580.957 18.6706 582.984 18.5106 584.637 18.5106C591.197 18.5106 594.797 19.4706 595.437 21.3906L601.277 37.7106L607.997 21.3906ZM642.176 57.9506C642.176 58.2706 640.256 58.4306 636.416 58.4306C632.629 58.4306 630.736 58.2973 630.736 58.0306L629.136 18.5906C629.136 18.1639 631.563 17.9506 636.416 17.9506C641.323 17.9506 643.776 18.1373 643.776 18.5106L642.176 57.9506ZM628.976 62.7506C628.976 62.3773 631.429 62.1906 636.336 62.1906C641.296 62.1906 643.776 62.3506 643.776 62.6706V74.1906C643.776 74.7239 641.296 74.9906 636.336 74.9906C631.429 74.9906 628.976 74.8306 628.976 74.5106V62.7506Z" fill="#4D48A6"/>
</svg>
