<svg width="1707" height="960" viewBox="0 0 1707 960" fill="none" xmlns="http://www.w3.org/2000/svg">
<path d="M1706.67 960H0V-6.10352e-05H1706.67V960Z" fill="#C9BCE3"/>
<path d="M453.233 334.024C451.449 334.424 441.699 331.988 443.808 328.08C447.196 321.807 451.815 328.204 454.104 333.675C453.827 333.829 453.537 333.956 453.233 334.024ZM433.361 349.017C430.407 340.476 441.919 343.087 445.251 348.1C446.083 349.353 446.647 350.717 447.012 352.133C441.96 354.545 435.304 354.637 433.361 349.017ZM447.848 310.409C442.593 311.717 449.648 313.811 452.092 313.204C457.109 311.955 458.629 323.06 458.303 325.663C458.284 325.813 458.259 325.976 458.228 326.148C453.491 321.675 446.515 319.559 440.376 322.619C431.287 327.153 437.173 336.249 444.939 338.151C448.283 338.969 452.008 338.857 455.423 337.872C455.484 338.239 455.515 338.561 455.511 338.825C455.455 341.713 454.343 344.653 452.76 347.113C443.913 336.224 420.183 337.771 424.767 349.433C428.327 358.488 438.448 360.108 447.512 357.172C447.507 357.293 447.509 357.413 447.501 357.535C447.199 363.036 441.568 377.437 433.38 373.211C431.469 372.223 423.689 373.591 426.116 374.843C440.372 382.207 457.38 371.523 455.921 354.924C455.864 354.277 455.765 353.653 455.633 353.048C461.905 348.465 465.792 341.411 463.029 333.492C465.024 331.453 466.388 328.833 466.716 325.661C467.936 313.855 458.311 307.805 447.848 310.409Z" fill="#F253B2"/>
<path d="M1450.71 412.94C1448.92 413.34 1439.17 410.904 1441.28 406.996C1444.67 400.723 1449.28 407.12 1451.57 412.589C1451.29 412.745 1451.01 412.872 1450.71 412.94ZM1430.83 427.933C1427.88 419.392 1439.39 422.003 1442.72 427.016C1443.56 428.269 1444.12 429.633 1444.48 431.049C1439.43 433.461 1432.77 433.553 1430.83 427.933ZM1445.32 389.325C1440.07 390.633 1447.12 392.727 1449.56 392.12C1454.59 390.871 1456.11 401.976 1455.77 404.579C1455.76 404.729 1455.73 404.892 1455.69 405.064C1450.96 400.591 1443.99 398.475 1437.85 401.535C1428.76 406.069 1434.64 415.165 1442.41 417.067C1445.76 417.885 1449.48 417.773 1452.89 416.788C1452.96 417.155 1452.99 417.477 1452.99 417.741C1452.92 420.629 1451.81 423.569 1450.23 426.029C1441.39 415.14 1417.65 416.687 1422.24 428.349C1425.8 437.404 1435.92 439.024 1444.99 436.088C1444.97 436.209 1444.97 436.329 1444.97 436.451C1444.67 441.952 1439.04 456.353 1430.85 452.127C1428.95 451.139 1421.16 452.507 1423.59 453.759C1437.84 461.123 1454.85 450.439 1453.39 433.84C1453.33 433.192 1453.24 432.569 1453.11 431.964C1459.37 427.381 1463.27 420.327 1460.51 412.408C1462.49 410.369 1463.85 407.749 1464.19 404.577C1465.41 392.771 1455.79 386.721 1445.32 389.325Z" fill="#5AC69D"/>
<path d="M686.447 561.613C685.175 562.928 675.689 566.249 675.305 561.825C674.689 554.723 682.063 557.529 686.981 560.843C686.835 561.125 686.663 561.389 686.447 561.613ZM678.08 585.059C670.919 579.545 681.971 575.403 687.509 577.761C688.893 578.351 690.115 579.18 691.197 580.163C688.301 584.955 682.791 588.687 678.08 585.059ZM668.972 544.841C665.3 548.821 672.345 546.693 674.053 544.844C677.56 541.044 684.931 549.488 686.088 551.843C686.155 551.979 686.223 552.128 686.292 552.289C679.876 551.155 672.884 553.219 669.437 559.148C664.333 567.931 674.251 572.296 681.783 569.619C685.027 568.464 688.079 566.325 690.389 563.625C690.643 563.899 690.847 564.151 690.987 564.373C692.528 566.817 693.212 569.885 693.243 572.811C679.868 568.573 660.889 582.903 671.128 590.129C679.077 595.739 688.424 591.531 694.384 584.099C694.445 584.201 694.513 584.301 694.575 584.407C697.344 589.169 700.552 604.296 691.389 605.264C689.249 605.488 683.5 610.905 686.216 610.619C702.173 608.939 710.513 590.667 700.175 577.6C699.772 577.089 699.345 576.623 698.904 576.191C701.627 568.915 700.999 560.884 694.339 555.787C694.885 552.988 694.585 550.049 693.116 547.219C687.649 536.683 676.283 536.917 668.972 544.841Z" fill="#5AC69D"/>
<path d="M1274.52 79.8107C1274.85 81.6107 1272 91.248 1268.18 88.9747C1262.06 85.3214 1268.65 80.98 1274.21 78.9254C1274.35 79.2107 1274.47 79.504 1274.52 79.8107ZM1288.66 100.304C1280 102.892 1283.1 91.5027 1288.25 88.3881C1289.53 87.6094 1290.92 87.1041 1292.35 86.7987C1294.55 91.9494 1294.35 98.6027 1288.66 100.304ZM1250.7 84.1854C1251.78 89.4907 1254.18 82.5307 1253.67 80.064C1252.64 74.9974 1263.8 73.9521 1266.39 74.3907C1266.54 74.4161 1266.7 74.4481 1266.87 74.4854C1262.2 79.0281 1259.79 85.908 1262.58 92.1707C1266.72 101.445 1276.06 95.9507 1278.29 88.2747C1279.25 84.968 1279.3 81.2414 1278.46 77.7881C1278.83 77.7427 1279.15 77.724 1279.42 77.74C1282.3 77.9187 1285.19 79.156 1287.58 80.8427C1276.33 89.216 1276.86 112.992 1288.71 108.908C1297.9 105.739 1299.95 95.6947 1297.41 86.5147C1297.53 86.524 1297.65 86.528 1297.77 86.54C1303.25 87.0773 1317.4 93.3161 1312.83 101.316C1311.76 103.184 1312.79 111.015 1314.15 108.644C1322.11 94.7147 1312.17 77.2667 1295.52 78.0174C1294.87 78.0467 1294.24 78.1187 1293.63 78.2254C1289.32 71.7627 1282.44 67.5787 1274.41 70.0013C1272.46 67.9213 1269.9 66.4467 1266.74 65.9854C1255 64.2614 1248.55 73.6214 1250.7 84.1854Z" fill="#F253B2"/>
<path d="M844.241 729.391C844.564 731.191 841.715 740.828 837.9 738.553C831.777 734.901 838.365 730.56 843.928 728.505C844.072 728.791 844.185 729.083 844.241 729.391ZM858.373 749.883C849.713 752.471 852.812 741.081 857.964 737.967C859.251 737.188 860.637 736.683 862.068 736.379C864.263 741.529 864.071 748.181 858.373 749.883ZM820.417 733.764C821.5 739.069 823.892 732.111 823.391 729.643C822.357 724.576 833.517 723.532 836.103 723.969C836.253 723.995 836.415 724.027 836.585 724.064C831.913 728.607 829.501 735.487 832.297 741.749C836.44 751.024 845.779 745.531 848.009 737.853C848.969 734.547 849.017 730.82 848.179 727.368C848.548 727.321 848.872 727.304 849.133 727.32C852.019 727.499 854.907 728.736 857.297 730.421C846.041 738.796 846.575 762.571 858.423 758.488C867.62 755.317 869.669 745.273 867.124 736.093C867.244 736.104 867.365 736.107 867.485 736.119C872.969 736.657 887.116 742.896 882.545 750.896C881.477 752.763 882.512 760.595 883.867 758.224C891.832 744.293 881.883 726.847 865.236 727.596C864.587 727.625 863.96 727.699 863.351 727.804C859.039 721.343 852.156 717.157 844.127 719.581C842.175 717.501 839.616 716.027 836.461 715.564C824.716 713.841 818.263 723.2 820.417 733.764Z" fill="#F68730"/>
<path d="M1059.13 527.8C1070.06 526.743 1081.02 536.445 1080.69 547.424C1080.36 558.413 1068.12 567.523 1057.66 564.131C1054.95 563.26 1052.13 561.077 1052.39 558.231C1052.65 555.175 1056.62 553.543 1059.46 554.675C1062.32 555.809 1064.05 558.741 1064.98 561.657C1068.96 574.101 1060.26 589.027 1047.48 591.691C1043.67 592.487 1039.41 592.22 1036.34 589.857C1033.25 587.504 1031.97 582.632 1034.36 579.577C1037.56 578.565 1041.18 580.253 1043.14 582.961C1045.11 585.676 1045.67 589.189 1045.53 592.539C1045.15 602.057 1039.28 611.152 1030.76 615.407C1022.24 619.672 1011.43 618.912 1003.59 613.512" stroke="#161A16" stroke-width="2.66667" stroke-miterlimit="10"/>
<path d="M1167.42 759.612C1175.34 751.996 1189.95 752.804 1196.5 761.619C1203.07 770.44 1199.12 785.177 1188.82 789.008C1186.15 790.011 1182.59 790.044 1181.02 787.656C1179.33 785.095 1181.43 781.355 1184.36 780.476C1187.3 779.593 1190.48 780.819 1193.02 782.524C1203.86 789.816 1206.3 806.92 1197.93 816.939C1195.44 819.925 1191.94 822.359 1188.06 822.416C1184.18 822.483 1180.15 819.46 1180.13 815.581C1182.01 812.803 1185.9 811.879 1189.12 812.784C1192.35 813.691 1194.96 816.1 1196.93 818.812C1202.54 826.512 1203.58 837.289 1199.54 845.912C1195.51 854.543 1186.56 860.655 1177.06 861.285" stroke="#161A16" stroke-width="2.66667" stroke-miterlimit="10"/>
<path d="M600.212 766.771C606.532 757.783 621.031 755.788 629.147 763.189C637.272 770.596 636.212 785.816 626.827 791.543C624.397 793.036 620.909 793.749 618.913 791.704C616.768 789.511 618.111 785.44 620.824 784.017C623.545 782.589 626.897 783.187 629.719 784.376C641.751 789.464 647.409 805.789 641.107 817.22C639.231 820.628 636.256 823.684 632.459 824.481C628.664 825.287 624.131 823.089 623.371 819.285C624.685 816.2 628.325 814.551 631.659 814.824C635.001 815.099 638.031 816.964 640.483 819.251C647.457 825.737 650.532 836.12 648.213 845.355C645.901 854.597 638.284 862.303 629.081 864.735" stroke="#161A16" stroke-width="2.66667" stroke-miterlimit="10"/>
<path d="M422.216 522.277C419.971 528.676 420.508 535.887 423.097 542.153C427.552 552.932 438.807 561.016 450.439 560.179C460.333 559.468 469.423 552.173 472.259 542.667C475.095 533.161 471.487 522.079 463.599 516.063C456.539 510.679 447.205 509.529 438.576 509.64C431.107 509.736 424.656 515.325 422.216 522.277Z" stroke="#161A16" stroke-width="2.66667" stroke-miterlimit="10"/>
<path d="M761.991 321.787C759.745 328.185 760.281 335.395 762.872 341.663C767.325 352.441 778.58 360.524 790.213 359.688C800.107 358.977 809.197 351.681 812.032 342.176C814.868 332.671 811.26 321.587 803.372 315.572C796.312 310.188 786.979 309.037 778.351 309.148C770.881 309.244 764.429 314.833 761.991 321.787Z" stroke="#161A16" stroke-width="2.66667" stroke-miterlimit="10"/>
<path d="M1124.31 333.684C1122.07 340.083 1122.6 347.293 1125.19 353.56C1129.65 364.339 1140.9 372.421 1152.53 371.585C1162.43 370.875 1171.52 363.58 1174.35 354.073C1177.19 344.568 1173.58 333.485 1165.69 327.469C1158.63 322.085 1149.3 320.936 1140.67 321.047C1133.2 321.143 1126.75 326.732 1124.31 333.684Z" stroke="#161A16" stroke-width="2.66667" stroke-miterlimit="10"/>
</svg>
