<?xml version="1.0" encoding="UTF-8"?><svg xmlns="http://www.w3.org/2000/svg" width="1950.4" height="1389.7" viewBox="0 0 1950.4 1389.7"><g id="a"/><g id="b"><g id="c"><g><g><path d="M311.8,1331.4c.2,15.4,9,35.6,20.4,46.3,3.3,2.8,6.3,5.2,9.9,7.1,5,2.6,10,3.5,18.8,4.4,30.7,2.6,44.6-3.1,59.3-24.4,10.9-15.5,12.9-24.7,13.7-46.5,.3-16.9-1-57.3-18.8-66.4-1.5-.8-3.1-1.3-5.1-1.6,0,0-37.8-4-69.6,19.8-15.1,11.3-28.7,45.6-28.5,61.4Z" fill="#6c7c6d"/><path d="M318.2,1208.1c2,7.7,6.6,17.1,13.4,20.6,16.5,8.4,49.5,6.6,69.8-4.1,9.5-5.5,31.5-25.4,37.1-34.7,4-7.8,6.7-18.9,6.7-18.9l-9-16.9c-3.4-7.7-8.7-13.4-15.7-17-10.3-5.3-23.8-5.8-42.4-1.6-24.1,5.3-41.1,17.9-53.5,39.2-9.6,15.8-10.3,19.6-6.3,33.5Z" fill="#6c7c6d"/><path d="M468.2,1276.3c5.3,12.7,13.3,28,28.8,33.4,8.4,2.9,18.1,2.8,30.6-.4,7.1-1.8,15.3-11.9,17.4-14.7,14.4-17.3,19.2-38.5,15.6-68.7-3.4-27.7-19.9-64.3-36.2-70-7.1-2.5-36.1,20.2-59.1,55.9-13.9,21.6-7.8,39.4,2.9,64.6Z" fill="#6c7c6d"/><path d="M435,1091.2c2.4,3.5,5.1,7.1,9.8,9.5,3.6,1.8,7.6,2.6,12.7,3.5,26,3.7,52.3-7.3,75.9-26.4,6.9-5.1,32.4-19.6,31.8-30.6-.8-14.8-45.6-37.5-45.9-37.6-19.6-10-40.7-.8-55,7-16.2,9.1-20.3,13.4-28.4,26.3-6.9,11.6-14.6,29.2-1,48.4Z" fill="#6c7c6d"/><path d="M358.3,1197.3c-1.3,2.6-.3,4.4,3.3,6.2,3.6,1.8,8.5,1.1,18-3.7,7-3.5,13.9-7.1,16-7.3,2.1-.2,8.2-2.2,13.9-4.5,9.3-3,41.8-17.3,46.9-14.7,2,1-7.8,14.1-28.6,42.1-17.7,24.5-57,110.2-56.8,117.4,.2,3.3,1.7,6.7,4.8,8.3,2.6,1.3,4.9,1.8,4.9,1.8,.3-.5,3.7-11,7.7-22.5,9.5-28.7,35.3-76.3,57.2-106.8,13-17.9,56.1-66.8,64.9-72.6,5.4-4.3,7.2-1.5,4.3,8-2.4,7.2-7.3,38.2-8.9,46.4-2.7,14.1,.3,24.7,7.7,24,3.3-.2,6.5-6.4,5.2-10.2-1-4.4,12.1-61.5,11.9-63.6-.2-2.1,3.2-11.3,8.2-21,9.7-18.9,20.6-30.1,45.1-45.3,7.2-4.1,13.7-9.1,14.2-10.1,3.6-5.9,66.1-41,91.9-51.1,11.1-4,21.9-8.8,24.2-10.8,5.7-3.5,6-9.2,.4-10.8-5.9-2.4-59,22.1-97.7,44.8-5.4,3-10.6,4.3-14.9,2.7-4.1-.8-17.2-1.7-29.5-1.5,0,0-52,7.6-65.6,10.1-3.9,.7-7.9,1.2-11.8,1.6-2.4,6.3,1.7,9.8,9.4,7.7,3.6-.7,10.8-2.2,15.7-2.9,12.3-1.4,40.3-3.2,54-3.4,18,.2,17.2,1.7-9.4,21-14,9.6-29.2,21.8-33.9,27.2-5.2,5.1-15,14.2-22.5,21.4-7.8,6.4-18.1,16.5-23.6,22.1-7,7.4-11.6,10.2-16.5,10.9-4.1,.5-12.6,1.9-19,3.2-14.1,2.4-30.1,7.2-30.1,7.2l-12.4,4c-19.1,7-46.2,20.9-48.3,25Z" fill="#455947"/></g><g><path d="M739.8,1057.3c-4.7,18.1-17.5,34.3-24.4,51.7-7.7,19.8-13,40.7-18.8,61.1-5,17.5-8.3,33.9-8.9,52-1,30.6,4.4,71.6,38.4,83.2,15.7,5.4,35.8-2.4,50.5-8.4,7.4-3,15.4-5.1,22.7-8,7.2-2.9,9.9-8.4,16.7-13.3,11.2-7.9,21.7-14.9,31.4-24.8,11.7-11.9,26.4-25.4,33.2-40.2,8.4-18.1,20-34.1,27.3-52.8,6.7-17.2,13.1-35.4,17-53.5,3.7-17.1,7.9-31.4,7.6-48.6-.4-19-3.6-36.6-12.6-53.7-4.4-8.3-10-15.2-16.7-21.7-2.8-2.8-9.5-7.1-11.1-10.7-2.1-4.8-2-2.6,1.8-8,2.5-3.6,10.2-8.8,7.8-13.7-4.6-9.4-14.8,5.5-17.3,7.9-6.1,6-10,5.2-18.1,5.4-14.5,.3-27,5.9-39.7,12.7-17.8,9.6-32.9,20.8-47.2,35.1-7.7,7.7-14.7,16-21.6,24.4-5.4,6.6-16.4,15.2-18.1,23.9Z" fill="#93745d"/><g><path d="M778.2,1283.3c-.7-5.8-1.1-10.9-.6-11.6,1.8-2.6-2-3.3-8-1.7-3.5,.9-7.8,.8-11-.9-7.1-3-10.4-1-15.9,10.2-4.6,9.3-5.2,23.6-2,25.9,4.2,3,34.8-5.8,38-10.3,.5-.6,.4-6-.6-11.6Z" fill="#c1ab8e"/><path d="M757.8,1078.3c5.9,4.6,8.3,5.4,15.2,5.3,10.2,0,25.2-4.1,27.2-7.1,1.1-1.6,1.1-3.6,0-4.8-4.4-5.5-10.8-19.2-12.6-26.2l-1.9-7.6-10.7,3.6c-5.9,2.2-14.2,3.6-19,3.6-10-.2-13.7,3-12.7,10.5,1.2,8.6,6.4,17.1,14.5,22.8Z" fill="#c1ab8e"/><path d="M707,1258.6c1.7-.3,6.3-4.8,10.6-9.5,4.5-5.1,8.3-9.1,8.8-9.8,.5-.6,2.2-3.8,3.5-7.7,3.4-8.3,2.4-12.4-4.4-18.6l-5.2-5.1-3.8,4.1c-4,3.8-21.7,14.4-28.8,17,0,9,.7,18.6,2.5,27.9l2.7,.5c5.9,1.2,12.3,1.8,14.2,1.2Z" fill="#c1ab8e"/><path d="M727.8,1192.3c0,2.9,5.8,13.8,9.1,16,10.1,7.1,25.3,8.1,38.8,2,6.1-2.5,11.1-9.6,10.7-15.3-.2-1.1-2.8-4.4-5.5-7.3-3.3-2.8-6.8-7.6-8.2-11.1l-2.4-5.6-13.6,2.1c-9.9,1.7-15.1,1.5-20.3-.7-4.3-1.5-7.8-2.1-8.2-1.4-.9,1.3-.5,20-.3,21.1Z" fill="#c1ab8e"/><path d="M814.7,1112.4c-2-3.3-3.1-9.4-3-15.7,.2-5.2,0-10.2-.7-10.7-.3-.2-6.5,1.7-14.1,4.2-13.9,5.3-29.9,6.1-38.9,2.3-2.7-.9-5.9-1.2-6.9-.5-5.6,3.8-2.5,27.8,4.8,36.7,3,4,4.6,5.2,9.2,5.5,3,.6,6.3,0,8.1-1.1,1.2-1.1,4-1.6,5.8-.7,7.2,2.1,20.8-1.4,31.8-8.7,6.9-4.3,7.3-5.5,4-11.2Z" fill="#c1ab8e"/><path d="M779.8,1153.3c2.7,3.8,3,7.4,1.2,11.5-2,4.9,3.5,13.6,11.4,17.6,11.9,6.4,24.2,6.8,34.3,.8,6-3.1,6.4-5.7,2-11.2-7.5-8.6-9.5-18.3-8.1-38.1,0-2.9-1-2.7-8.5,1.8-4.7,2.5-13.7,6.4-20.2,8.1-13.4,3.2-15.1,4.9-12,9.5Z" fill="#c1ab8e"/><path d="M910,1110.5c-.7,1-3,2.2-4.9,2.9-1.7,.3-6.4,4.2-10.5,8.1l-7.2,7.5,.9,6.9c1.4,7.7,9.4,24.5,13.3,27.2,1.3,.9,2.5,1.3,3.5,1.3,1-2.2,1.9-4.4,2.8-6.6,5.9-15.1,11.4-30.9,15.3-46.7,0,0,0-.1,0-.1-1.6-2.6-11.6-2.8-13.2-.5Z" fill="#c1ab8e"/><path d="M833.4,970.4c-.2,.7-.4,1.3-.7,1.7-2.3,3.2-1.2,12.7,2.3,18.1,3.1,4.6,3.7,5,8.2,4.8,2.9,0,6.9,.5,9,1,1.8,.8,6,.4,9.3-.8,10-3.2,13.5-7.5,17.7-19.1,4.5-13.4,5.8-18,4.7-20-5.8,5.5-9.7,4.8-17.7,5-12,.3-22.5,4.1-32.9,9.2Z" fill="#c1ab8e"/><path d="M852.8,1013.3c-3.3,7.4,.3,21,6.8,25.6,4.5,3.2,14.2,3.2,23.1,.2,6.7-2.6,8.2-3.4,12.4-10.2,4.5-7,4.4-7.6,1-10.4-4.3-3.5-7.2-8.4-9.9-15.6-2.6-6.7-5.5-7.3-10.9-2.3-2.4,2.7-7.6,5.3-12.2,6.4-6.9,1.5-8.4,2.3-10.3,6.4Z" fill="#c1ab8e"/><path d="M779.9,1027.5c3.9-2.1,8.2-5.4,9.5-7.4,2.5-3.6,2.2-3.8-4-8.1-2.6-1.9-4.3-2.9-5.7-3.3,0,0-.2,.2-.3,.2-7.6,7.6-14.5,15.9-21.4,24.2,5,.2,15.9-2.4,21.8-5.6Z" fill="#c1ab8e"/><path d="M898.9,1176.9c-1.5-2.6-5.9-2.2-12,2.5-10.3,7.8-18.8,9.6-31.7,7.3-8.2-1.4-11.3-1.1-12.1,.7,0,1.4-1.5,4.3-2.9,6.2-2,2.9-2.6,6.4-1,13.8,1.8,8.5,2.7,10.6,6.9,13.6,7.6,5.3,19.9,7.6,24.8,4.9,3.9-4.9,7.3-10,9.8-15.2,5.4-11.7,12.2-22.5,18.2-33.8Z" fill="#c1ab8e"/><path d="M906.7,1044.7c-2.7-5.8-6.3-8.3-6.5-4.5-.1,.9-3.6,3.8-8.1,6-4.7,2.5-8.7,5.5-9.6,6.8-4.6,6.5,4.4,28.3,14.8,35.5,9.2,6.4,22.5,10.4,29,9.4,2.4-10.8,4.8-20.7,5.7-31.3-1.3-2-3.8-3.5-7.9-5.3-8.1-3.7-13.1-8.2-17.4-16.6Z" fill="#c1ab8e"/><path d="M766.7,1258.3c5.3-.6,19.1-6.5,20.9-9.1,.9-1.3,.1-4.3-1.9-7.6-2-3.3-4.1-8.7-4.8-12.5l-1.3-7.2-11.8,2.4c-6.6,1.2-14.4,2.5-17.5,2.2-6.8,0-7.9,3.7-3.4,13.1,3.9,9,14.7,19,19.8,18.7Z" fill="#c1ab8e"/><path d="M890.8,1095.1c-10.1-9-15.5-15.2-16.3-19.6-1.2-5.2-3.7-5-8.6-.2-7.5,7.3-28.7,13.3-37.1,10.8-4.6-1.8-5.5-.5-6.1,8.8-1,9,2,14.5,10.7,20.6,10.4,7.3,23.4,10.1,33.8,7.7,12.5-3.3,23.3-9.8,27.3-16.2l3.3-5.4-7.1-6.4Z" fill="#c1ab8e"/><path d="M928.5,1024.7c-1.7,.4-3.8,1-6,1.6l-8.3,2.9,1.1,6.1c.5,4.7,2.5,7.5,7.2,11.8,4.7,4.3,7.8,6.1,9.9,5.4-.4-9.6-1.5-18.8-3.8-27.8Z" fill="#c1ab8e"/><path d="M816,1275.7c11.2-7.9,21.7-14.9,31.4-24.8,3.3-3.4,6.9-6.9,10.5-10.6-.5-.4-1.2-.8-2.1-1.4-5.1-3.1-10.1-2.2-16.1,2.3-9,7.3-25.9,14.8-34,15.4-17.5,.8-24.8,20.9-12.1,33.1,.4,.4,.7,.7,1,1,1.6-.6,3.2-1.1,4.7-1.7,7.2-2.9,9.9-8.4,16.7-13.3Z" fill="#c1ab8e"/><path d="M688.2,1215.5c2.9-.5,6.5-2,8.8-4.2,2-1.5,4.8-3.4,6.7-4,4.9-1.4,8.6-7.5,9.5-14.2,.6-3,.7-9.2,.1-14-.2-4.5,0-11.1,.3-14.3,.6-4.9-.5-7.6-4.1-12.1-3.1-3.1-5.6-6.3-5.9-7.5-2.4,8.3-4.6,16.6-7,24.8-4.4,15.3-7.4,29.8-8.5,45.4Z" fill="#c1ab8e"/><path d="M721.3,1303.4c.2-1.3-1.1-4.3-3.4-7.2-2.3-3.6-5.9-9.5-7.3-13.8-1.6-4-3.7-7.9-4.3-8.3-1.3-.9-7.2-2.2-12.5-3.1,4.9,13.9,13.4,25.9,27.4,32.4Z" fill="#c1ab8e"/><path d="M903.2,980.3c-1.9-1.8-5.4-4.3-8-6.8-.7,9.4,1.1,24.3,4.3,30.4,5.1,9.7,20.1,15.2,25.5,9.7-1.5-3.9-3.1-7.7-5.1-11.5-4.4-8.3-10-15.2-16.7-21.7Z" fill="#c1ab8e"/><path d="M789,1000.1c1,3,4.4,5.8,9.3,7.4,6.7,2.2,27.2,1.2,30.5-1.4,2.9-2.8,2.7-3.9-1.8-8.5-2.8-2.9-5-7.4-6.5-14.2-.4-2.2-.7-3.9-1.1-5.3-10.9,6.5-21,13.6-30.4,22Z" fill="#c1ab8e"/><path d="M802.5,1241.8c6.5,3.1,8.3,3.4,13.3,1.1,5.8-2.7,16.6-9.2,18.5-11.2,.5-.6-.9-5-3-10.3-1.7-5.1-3.6-12.2-3.8-15.3-.2-7.4-1.5-8.3-9.7-6.8-3.6,.4-9.6,.5-12.8,.3-7.2-.7-8.5,.4-12.8,12.8-4.9,12.5-1,23.5,10.3,29.5Z" fill="#c1ab8e"/><path d="M709,1127.9c.8,1.6,2.8,6.3,4.4,10.3,2.6,6.7,4.1,8.7,14.5,16,13.1,9.7,16,10.3,30.9,5.7,9.2-2.8,8.4-2.3,9.4-7.9,.5-3.5,0-4.8-2.4-5.6-2.1-.5-6.8-2.8-11.2-5.4-8.2-4.8-12.8-11.4-15.7-23.1-1.9-6.2-3.9-9-5.2-7-.5,.6-6.2,3.4-12.9,6-3.7,1.5-7.2,3-9.6,4.3-.7,2.2-1.5,4.4-2.2,6.6,0,0,0,.2,.1,.2Z" fill="#c1ab8e"/><path d="M886.2,1159.6c-.7-1-2.7-7.2-5-13.6-3.9-12.4-5-13.6-9.4-11.4-4.4,2.2-20.4,.7-28.6-2.6-4.3-1.5-8.7-2.7-9.5-2.3-5,3.7-4.2,26.1,1.6,33.6,6.4,8.8,23.1,14.7,34,12.2,9.3-2.2,19.8-11.7,16.9-15.8Z" fill="#c1ab8e"/><path d="M742.9,1255.7c-.3-3.1-5.3-10.5-7.5-10.1-.8,.4-5.4,4.9-10,10.9-7.9,9.9-8.3,11.1-7.5,15.5,1.2,5.2,5.6,14.1,7.9,15.7,1.3,.9,8.3-11.1,10-17.7,.5-2.1,2.4-5.6,4-7.8,1.6-2.3,2.8-5.3,3.1-6.5Z" fill="#c1ab8e"/><path d="M858.6,1051.2c-10.8-3.2-15.4-9.8-18.3-24.9l-2.4-11.8-10.3,3c-5.4,1.5-12.6,2.8-15.5,2.7-4.9-.6-5.7-.1-8.6,6.1-4.4,9-4.8,15.1-1.8,25.4,3.3,10.5,8.5,16.1,15.1,16.4,2.3,.2,6.2,1.5,8.5,3.1,7.5,5.2,21,4.6,31.5-2.1,5.7-3.3,10.2-9.8,9.6-13.1-.3-1.7-2.5-2.7-7.9-4.6Z" fill="#c1ab8e"/><path d="M721.4,1104.1c10.8-5,14.8-9.4,17.8-18.5,1.4-4.8,1.5-7.7-.8-11.2-1.2-2.1-2.2-3.5-3.2-4.2-5.3,11.7-12.6,22.9-17.9,34.6,1.3,0,2.8-.1,4.1-.7Z" fill="#c1ab8e"/></g></g><g><path d="M1348,1203.3c15.5-2.6,29.9-5.4,39.3-18.4,19.2-26.3,33.3-56.5,27.5-89.7-4.8-27.6-20.5-50.8-36.4-73-9-12.6-18.2-25.2-28-37.3-3.9-4.9-23.3-21.7-21.4-27.4,.9-2.6,63.3,37.3,71.8,42,12.2,6.9,23.9,14.9,35.2,23.1,8.3,6,22.9,13.6,25.2,24.5,2.3,10.5,26,148.6,35.2,164.8,32.6,57.9,123.6,132,182.2,65,47.2-54,15.3-150.9-29.1-197-26.6-27.6-57.9-49.2-95.7-56.8-17.3-3.5-35.9-5.4-53.3-1.3-14.7,3.4-20.6,10-32.6-1.4-14.8-14.2-1.2-13.1,12.5-15.1,17.1-2.5,33-9.7,47.6-19,33.8-21.6,62.9-59.3,63.9-100.4,.8-31.1-9.6-70.2-38.2-87.2-11.6-6.9-26.7-10.7-39.8-13-19.7-3.4-33.3,4.3-51.4,9.2-14.2,3.8-19.7,13.8-30.2,24.5-6,6-35.1,60.6-38.6,73.4-4.9,18.2-6.8,36.5-7.6,55.2-.8,19.9-3.2,16.8-19,9.7-16-7.2-31.8-15-47.5-22.9-34-17.3-68.3-40.7-104.2-53.2-12.7-4.4-42.9-17.3-54.2-2.2-10.3,13.7,25.5,19.4,35.5,23,18.2,6.7,36.6,13,54.7,20.3,3.4,1.4,50.5,33.4,54.8,35.7-13-7.1-53.6,109.8-55.6,117.9-4.2,16.9,2.4,33.7,6.4,50.4,3.7,15,9.8,29.3,19.4,41.6,7.8,10,43,39.9,71.5,35.1Z" fill="#879296"/><path d="M1457.1,797c-1.5,.7-2.9,1.4-4.2,2.3h0c.2,1.3,.4,2.8,.6,4.5,.6,6,5.5,22.1,10,36.2,5.3,14.1,10.6,31.4,11.6,37.8,1,7.1,6,24.1,11.6,38.6l9.2,26.3-5.8,6.3c-6.5,7.1-24.8,21.2-28,21.3-2.8-.3-24.7-34.3-27.7-43.4-.9-3.1-8.3-20.8-15.6-39.2-4-9.8-7.8-19.3-10.6-26.5h0c-1.2,2.4-2.4,4.7-3.5,7,0,.1-.1,.3-.2,.4-1.1,2.3-2.2,4.5-3.2,6.6,3.1,6.6,7.4,17,13.9,33,8.7,21.9,19.1,46.2,23.3,53.2,4.2,7,7.3,14.4,6.5,16.1-.7,1.6-6.2,5.1-11.7,7.8-6.3,2.7-53.8-1.8-56.6-.5h0c11.1,6.9,20.7,12.8,23.9,14.7,26.5-.6,50.3-8.6,51.5-9.2,4.7-1.8,8.7-1.2,14.8,2.1,4.5,2.6,13.4,6.9,19.5,10.2,.8,.3,1.5,.7,2.3,1h0c6.8-1.6,13.4-3.9,19.8-6.7,2-.9,4-1.8,5.9-2.8,1.1-.5,2.2-1.1,3.3-1.6-1.5,.2-3.1,.5-4.5,.8-5.9,1.5-14.3,1.5-17.6,0-16.6-6.8-21.1-9.4-21.1-11.8,.3-2.8,27.1-25.3,31.9-26.3,2-.5,13.6,1.7,25.3,4.8,7.8,2,16.5,3.8,22.8,5h0c3.6-3.7,7.1-7.5,10.4-11.5h0c-20-.6-45.1-6.2-44.9-10.4,0-1.6,4.1-8.6,9.5-15.2,5.4-6.6,11.5-14.9,13.4-17.8,3-4.9,3.8-5,7.1-1.9,3.9,3.6,9,3.5,39.2-1.9h0c.9-3.7,1.6-7.3,2.1-11.1h0c-7.3,1.8-15.5,3.4-20,3.9-16.3,2-17.3-3.5-3.9-23,8.2-11.4,12.8-19.5,18.6-33.1-.8-2.6-1.8-5.1-2.8-7.6-.2-.4-.3-.7-.5-1.1-1-2.5-2.1-4.9-3.4-7.2h0c-.1,.3-.3,.7-.4,1-10,24-26.3,50.8-30.3,50.2-4.4-1-11.3-40.6-10.4-63,.3-9.7,.6-17.2,.9-23.1h0c-4-1.4-8.2-2.6-12.3-3.6,.4,7.8,.8,17.2,1.1,27.2,.7,33.9,2.5,51,6,62,2.7,8.7,4.1,17,2.6,19.4-1.1,2-7.6,10.7-14.9,18.7-11.9,13.8-13.1,14.2-15.6,11.1-7.4-7.6-12.2-18.2-18-37.4-3.6-11.8-9.9-34.6-14.8-50.8-5.5-18.5-8.9-33.5-10.2-43.8,0,0-.2,0-.3,0-1.9,.5-3.6,1.1-5.2,1.8-.1,0-.2,.1-.3,.2Z" fill="#c1c1c1"/><path d="M1380.6,1161.7c-8.3-10.6-18.2-22.8-22.1-26.4-8.1-7.4-9.6-12.6-14.3-49.3-2.3-17.1-2.4-18.7,2.5-18,5.2,.3,34.5,27.3,47.9,43.4,3.8,4.5,12.4,14.8,18.1,22.7,1.4-5.3,2.3-10.7,2.8-16.3-17.2-20.5-43.8-47.5-54.8-55.8-8.4-6.2-16.4-12.1-18.4-12.4-2.1-1.2-5-9.1-7.7-21.4-1.9-10.8-4.5-21.5-5.5-23.9-1.9-5.6,3.1-7.7,7.4-3.7,1.7,1.6,8.3,5.4,14.9,8.5,11.3,5.1,25.6,15.3,34.8,24.6-2.6-3.9-5.3-7.7-8-11.5-5-7-10.1-14-15.3-20.9h0c-1.7-.6-3.7-1.6-5.7-2.7-4.9-2.3-14.9-7.7-22.3-10.8l-13.2-6.1s-16.4-23.7-15.5-23.3c-.4-.2-.9-.3-1.3-.3,0,0-.1,0-.2,0-.4,0-.8,.2-1.3,.4,0,0,0,0-.1,0-.5,.3-1,.6-1.6,1.1h0c-.6,.5-1.2,1.1-1.8,1.8,.9,1.9,1.9,4,3,6.6,7,15.5,6.4,19.5-1,23.2-3.1,1.7-15.3,11.5-27.1,22.5-.8,.7-1.5,1.4-2.3,2.1-2.2,5.4-4.3,10.9-6.3,16.1,0,0,0,0,0,0-2,5.3-3.9,10.4-5.6,15.1h0c14.1-16.4,33.7-36.6,41.8-41.9,4.7-2.5,9.7-4.6,11-4.2,3.7,1.9,10.2,28.2,10.9,46.2l.6,15.6-14,13.5c-18.6,16.8-36.3,41.9-42.8,60-1.9,4.9-3.1,8.6-3.8,11.4,1.6,3.5,3.4,7,5.3,10.3,5,.9,7.5-2.2,9.5-12.4,.9-4.4,5.1-14.1,8.7-21.4,8.3-15,37.1-47.1,39.7-44.8,2.5,2.3,10.9,46.2,9.4,47.8-.8,.8-2.7,1.3-4,.9-4.1-.7-14.1,11.1-20.2,23.6-2.9,5.7-7.1,21.3-9.9,34.6-.2,1.2-.5,2.3-.7,3.5h0c3.6,2.3,7.4,4.5,11.3,6.4,2.2-17.3,8.5-38.3,16.2-49.2,11.1-15.4,10.2-16.2,28.3,49.4,.5,1.7,.9,3.2,1.3,4.7h0c2.4-.5,4.7-1.2,6.9-1.9,.1,0,.3,0,.4-.1,2.2-.7,4.4-1.6,6.4-2.6h0c-.7-2.2-1.4-4.6-2.2-7.2-4.8-13.5-8-25.4-7.2-26.3,2.4-2.6,13.5,10.6,22.1,23.7,.5-.6,1.1-1.2,1.7-1.9,1.8-2.5,3.5-5,5.2-7.6-3.4-4.6-7.6-10.2-11.9-15.7Z" fill="#c1c1c1"/><path d="M1454.4,1036.2c-.6,.6,5.1,5,4.5,5.6,1.1,1.7,1.9,3.5,2.3,5.4,.3,1.3,.9,4.6,1.8,9.5,6.8,1.8,19.7,13.4,19.7,19.2,0,2.5-5.2,19.8-9.9,34.1,1.5,8.1,3.1,16.4,4.8,24.7,14.3-43.9,16-48.5,18.6-47.8,6.6,2.2,16,9.3,29.5,22.9,8,8.1,16,16.2,18.1,18.5,2,1.5,4.6,4.1,5.4,4.7,.9,1.4-3.2,9.3-10,20.1-20.2,30.3-28.1,49.2-28.8,71.4-.2,2.9-.6,5.4-1,7.4,3.4,4.6,7.2,9.2,11.1,13.7,1.2-2.1,1.7-5.1,1.2-9.9-2.9-20.8,6.2-45.7,26.4-73.3q11.9-16.6,16.3-14c2,1.5,7.9,7.3,12.2,12.7,4.3,5.3,9.9,11.6,12.3,13.4,7.8,5.8,6.4,11-4.4,23.6-15.9,17.7-28.4,50.4-28,75.5,0,1.7,0,3.2-.2,4.5,3.7,2.7,7.6,5.2,11.4,7.6,0-3.1,0-6.6,.1-11.1,1.1-21.9,9.7-48.6,19.7-61.8,4.7-5.4,9.8-11.3,12.6-13.3,2.1-1.9,5-3.2,5.8-2.6,1.1,.2,6,6.6,10.4,13.4,7.1,10.2,8.1,13,5.9,16.8-4.2,7.2-13.7,39.4-14.6,48.3-.3,4.6,0,15.2,1.1,24.9,0,.6,0,1.1,.1,1.7,4.2,.8,8.3,1.2,12.5,1.3-.9-4.6-1.6-9.8-1.7-14.8-1-13.2,.1-20.6,4.2-32,2.9-8.1,5.5-15.8,6.1-17.5,.6-1.6,2.1-1.9,3.3-1,3.3,2.5,19.9,40.9,24.6,56.1,3.3-1.9,6.6-4.1,9.8-6.7-3.4-9.4-14.9-35.8-20.8-45.4-1.9-4.2-3.5-8.1-2.8-9,2.7-3.5,16,1.7,43.4,15.5,2.1,1.1,4.3,2.2,6.5,3.3,1.6-3.9,3-7.9,4.1-12.1-.2,0-.4-.2-.6-.3-4.3-1.9-16.5-6.9-26.4-11.6-10.2-4.3-21.6-8.7-25.5-9.5-4.3-1.1-10.2-3.5-13-5.7-6.1-4.6-20.3-25.7-18.7-27.9,.7-.9,5.3-.2,9.6,1.7,4.7,1.4,17,4.6,27.5,6.9,21.8,4.1,37.9,8.5,51.1,14,0-3.6-.2-7.1-.4-10.7-14.7-5.8-30.2-10.6-45.6-13.3-10.4-2.3-28.2-6.8-39.2-10.9q-20.6-6.6-31.7-19.1c-6.4-6.9-12.6-13-13.9-13.9-17.4-11.7-8.7-14.8,38.9-13.4,14,.9,38.9,4.5,60.9,10,5.9,1.4,11.7,3.3,17.2,5.6-1.8-4.6-3.8-9-5.9-13.4-31.2-8.8-70.9-14.3-100.5-13.1-13.9,.6-27.4,.7-29.7,.4-6.9-1.1-40.7-32.7-38-36.2,1-1.3,32-4.2,43.7-3.6,3.4-.2,14.7,0,25.3,.4,20.4,0,51.2,3.7,70.8,8.5-1.4-1.6-2.9-3.2-4.4-4.8-3-3.1-6-6-9.1-9-24.8-3.1-61.1-5.9-79.2-5.7-15,.4-36.9,.5-48.2,.2l-21.4,.4-12.5-11.5c-3.7-3.4-21.8-15.9-24.6-18.2Z" fill="#c1c1c1"/></g><g><path d="M922.6,257.1c-11.9-8-23.2-15.2-37.6-12.6-29.3,5.3-57.5,16.4-74.6,42-14.2,21.3-18.4,46.5-21.9,71.2-2,14-3.8,28.1-4.9,42.3-.5,5.7,1.8,29-3.1,31.5-2.2,1.2-18.4-64.5-21-73-3.8-12.2-6.4-24.9-8.8-37.4-1.7-9.2-6.6-23.4-1.3-32.1,5.1-8.4,76.3-114.7,80.4-131.1,14.8-58.8,1.3-165.1-79.6-157.6-65.2,6-105.1,90.2-104.7,148.6,.2,34.9,7.3,68.9,27.6,97.8,9.2,13.1,20.4,26.1,34.4,34.4,11.9,7,19.9,6.3,20.6,21.5,.9,18.7-7.4,9.4-17.8,2.1-12.9-9.1-27.9-14.4-43.4-17.4-35.9-7-78.9-.3-105.4,26.2-20.1,20.1-37.8,52.5-29.6,81.7,3.3,11.8,10.9,23.9,18.2,33.6,10.8,14.7,24.7,18.1,39.7,26.2,11.8,6.4,21.7,3.3,35.4,2.8,7.8-.2,61.4-18,71.7-24.3,14.7-8.9,27.4-19.8,39.7-31.8,13-12.6,12.7-9.1,18.7,5.5,6.1,14.9,11.6,29.9,17,45.1,11.6,32.8,19.6,69.9,35.4,100.8,5.6,10.9,17.5,38.4,34.4,35.6,15.4-2.6-4.7-28.9-9-37.6-7.9-15.9-16.1-31.6-23.4-47.8-1.4-3-12.4-53.9-13.7-58.1,4.1,12.8,104.5-38.9,110.9-43,13.4-8.5,19.7-23.8,27.5-37.4,7-12.2,11.9-25.6,13.4-39.7,1.1-11.5-3.4-53.4-25.2-68.2Z" fill="#879296"/><path d="M594.8,457.2c1.4,.5,2.8,.9,4.2,1.1h0c.7-1,1.5-2.1,2.4-3.4,3.4-4.3,10.3-18.1,16.2-30.2,5.4-12.6,12.8-27.5,16.1-32.3,3.8-5.4,11.2-19.7,16.6-32.8l10.4-23.2,7.8-.5c8.8-.6,29.7,1.6,32,3.5,1.7,1.9-5.3,38.2-8.9,46.1-1.4,2.6-7.6,18.9-14.3,35.7-3.6,9-7,17.7-9.7,24.2h0c2.3-.8,4.5-1.6,6.7-2.4,.1,0,.3,0,.4-.1,2.2-.8,4.3-1.6,6.3-2.3,2.1-6.3,5.8-15.9,11.6-30.6,8-20,16.4-42.5,18-49.8,1.6-7.3,4.3-14.1,5.8-14.7,1.5-.6,7.3,.5,12.6,2.2,5.9,2.2,34.5,35,37.1,35.9h0c-3-11.5-5.6-21.5-6.6-24.8-17.9-16.3-38.7-26-39.9-26.4-4.3-1.8-6.5-4.7-8.5-10.7-1.3-4.5-4.5-13-6.5-19-.3-.7-.6-1.4-.9-2.1h0c-5.5-3.2-11.3-5.8-17.3-8-1.9-.7-3.8-1.3-5.7-1.9-1.1-.3-2.1-.7-3.2-1,1.2,.8,2.3,1.6,3.5,2.3,4.9,2.8,10.4,8,11.6,11,6.7,14.9,8,19.4,6.6,21.1-2,1.7-33.8-.3-37.6-2.6-1.6-.9-7.9-9.7-13.7-19.1-3.9-6.3-8.5-12.9-12-17.6h0c-4.7,.1-9.4,.5-14.1,1.1h0c12.8,13,26,32.5,23.2,35.1-1,1.1-8.1,3.1-15.8,4.1-7.7,1-17,2.7-20.1,3.4-5.1,1.4-5.7,.9-5.9-3.2-.3-4.8-3.7-8-27.1-23.4h0c-2.9,1.9-5.7,3.8-8.3,6h0c6,3.4,12.4,7.5,15.7,10,12,8.9,9.2,13.2-11.8,17.7-12.6,2.4-20.7,4.9-33.2,10.2-1.1,2.2-2,4.5-2.9,6.8-.1,.3-.3,.7-.4,1-.9,2.3-1.6,4.6-2.3,6.9h0c.3-.1,.6-.3,.9-.4,21.7-9.6,49.3-17.1,51.6-14.1,2.3,3.4-18,33.9-32.7,48.2-6.3,6.2-11.2,11-15.1,14.7h0c1.8,3.5,3.8,6.9,5.9,10.2,4.7-5.4,10.3-11.9,16.4-18.7,20.9-22.9,30.4-35.3,35-44.8,3.7-7.4,7.9-13.8,10.5-14.5,2-.6,11.8-2.3,21.6-3,16.5-1.6,17.6-1.2,17.3,2.4,.1,9.7-3.4,19.7-11.7,36.1-5.1,10.1-15.2,29.2-22.1,42.9-8,15.7-15.2,27.7-20.8,35.4,0,0,.1,0,.2,.1,1.5,.8,3.1,1.5,4.6,2,0,0,.2,0,.3,0Z" fill="#c1c1c1"/><path d="M874.8,264.1c-1.2,12.2-2.3,26.6-2,31.3,.7,10-1.6,14.4-21.6,41.6-9.3,12.8-10.2,13.9-13,10.4-3.3-3.5-5.7-39.8-4.4-58.9,.3-5.4,1.1-17.6,2.3-26.4-4.3,2.7-8.3,5.6-12.1,9-1.5,24.4-.9,59,1.2,71.4,1.6,9.4,3.2,18.3,4.3,19.8,.6,2.1-2.4,9.1-8.4,19.1-5.5,8.3-10.5,17.1-11.4,19.2-2.2,4.9-6.9,3.1-7.2-2.2-.1-2.1-2.1-8.8-4.5-15-4.3-10.5-7.3-26.2-7.6-38.2-.7,4.2-1.3,8.4-1.9,12.7-1.1,7.8-2.1,15.6-3,23.5h0c.7,1.5,1.5,3.4,2.1,5.4,1.8,4.6,5,14.5,8,21.1l4.9,12.4s-4.1,26-4.4,25.2c.1,.4,.4,.8,.7,1,0,0,.1,0,.2,0,.3,.2,.7,.4,1.1,.6,0,0,0,0,.1,0,.5,.1,1.1,.2,1.7,.3h0c.7,0,1.5,0,2.3,0,.6-1.8,1.3-3.8,2.2-6.2,5.1-14.6,8-16.9,15.2-14.7,3.1,.9,17.4,2,32.1,2.1,1,0,1.9,0,2.8,0,4.9-2.2,9.7-4.5,14.3-6.7h0c4.6-2.2,9.1-4.4,13.2-6.5h0c-19.7,2-45.4,3-54,1.5-4.6-1.3-9.3-3.1-9.9-4.1-1.3-3.6,11-25,21.9-37.4l9.4-10.7h17.7c22.8,.5,50.4-5,66-12.9,4.4-2.1,7.5-3.7,9.7-5.2,1.2-3.3,2.2-6.7,3-10.2-2.8-3.7-6.3-3.2-14.1,2.2-3.4,2.3-12.3,6.1-19.2,8.7-14.9,4.7-54.2,7.8-54.4,4.6-.2-3.2,21.9-37.4,23.9-37.5,1,0,2.6,.9,3.2,1.9,2.2,3,16.3,1.6,28.2-2.9,5.4-1.9,18.1-9.6,28.3-16.7,.9-.6,1.8-1.2,2.6-1.9h0c-.9-3.8-2.1-7.6-3.5-11.4-12.3,10-29.7,20-41.6,22.4-17,3.2-16.9,4.3,12.4-50.5,.8-1.4,1.5-2.7,2.1-3.9h0c-1.9-1.1-3.8-2.2-5.8-3.1-.1,0-.2-.1-.4-.2-1.9-.9-3.9-1.7-5.8-2.3h0c-1,1.9-2,3.9-3.1,6.1-5.3,12-10.7,21.8-11.7,21.9-3.2,.2-2.2-15.5,.2-29.6-.8,0-1.5,0-2.3,.2-2.8,.5-5.5,1.1-8.2,1.7-.6,5.2-1.4,11.6-2,17.9Z" fill="#c1c1c1"/><path d="M747.1,300.6c.8,0-.2-6.5,.6-6.5,.4-1.8,.9-3.5,1.8-5,.6-1,2.3-3.6,4.8-7.4-3.4-5.4-4.6-21.3-1-25.1,1.6-1.7,15.9-9.9,28-16.3,4.1-6.3,8.2-12.8,12.4-19.3-37.1,20-41.1,22-42.4,19.9-3-5.7-4.7-16.2-5.1-33.7-.2-10.4-.4-20.8-.4-23.6-.4-2.3-.4-5.6-.6-6.5,.3-1.5,8-4.2,19.2-7,32.4-7.3,49.5-14.9,64-29.1,1.9-1.8,3.8-3.2,5.3-4.3,.6-5.2,1.1-10.6,1.3-16.1-2.1,.6-4.3,2.4-7,5.8-11.2,15.6-32.9,26.3-63.5,31.9q-18.3,3.5-19.5-1c-.4-2.3-.6-9.8-.1-16.1,.5-6.2,.8-13.8,.3-16.6-1.5-8.7,2.7-11.3,17.7-12.9,21.6-1.7,50.5-15.5,66-32.3,1.1-1.1,2-2,3-2.9-.8-4.1-1.7-8.2-2.8-12.2-1.9,2.1-4.2,4.4-7.1,7.3-14.5,13.8-37,26-51.9,28.5-6.5,.6-13.6,1.3-16.7,.9-2.6,0-5.3-1-5.4-1.9-.6-.8,.2-8.1,1.5-15.4,1.7-11.2,2.8-13.7,6.7-14.8,7.3-2.2,33.8-17.5,40.1-22.7,3.1-2.9,9.5-10.1,15-17.2,.4-.4,.6-.8,1-1.2-2.3-3.1-4.8-6-7.4-8.7-2.3,3.6-5.1,7.5-8.2,10.9-7.6,9.3-13,13.5-22.9,18.5-7.1,3.5-13.6,7-15,7.7-1.4,.7-2.6,0-2.8-1.4-.6-3.8,12.6-39.6,19-52.6-3.4-.8-6.9-1.4-10.7-1.7-3.7,8.4-12.7,33.1-14.8,43.1-1.4,4-2.8,7.6-3.8,7.7-4,.7-9.5-11.2-19-37.5-.7-2-1.5-4.2-2.2-6.3-3.5,1.6-7,3.4-10.3,5.4,0,.2,.1,.4,.2,.5,1.7,4,6.6,15,10.2,24.3,4.1,9.3,8.8,19.4,10.9,22.3,2.1,3.4,4.5,8.7,5,11.9,1.1,6.9-2.7,29.8-5.2,30.2-1,.2-3.6-3.2-5.3-7.2-2.2-3.9-8.4-13.7-13.8-21.8-11.8-16.4-19.7-29.5-25-41.4-2.2,2.4-4.4,4.8-6.4,7.4,6,13.1,13.3,26,21.8,37.5,5.4,8.1,14.4,22.2,19.1,31.8q9.5,17.3,9,32.6c-.1,8.5,.2,16.5,.4,17.9,4.1,18.7-3.6,15.3-34.2-15.6-8.7-9.4-22.9-27.4-34-45-3.1-4.6-5.7-9.6-7.9-14.5-1.7,4.2-3.2,8.3-4.5,12.6,15.1,25.5,37.9,54.1,58.2,71.9,9.5,8.3,18.6,16.8,19.9,18.5,3.9,5,6.3,47.2,2.3,47.9-1.5,.2-23.8-17.3-31.2-25.1-2.4-2-9.7-9.3-16.5-16.2-13.5-12.8-31.6-34.7-41.5-50.2,0,2-.1,4-.1,5.9,0,3.9,.2,7.8,.4,11.6,14.4,17.6,36.7,42.3,48.8,53.6,10.2,9.2,24.7,22.9,32,30.2l14.4,13.2,1,15.4c.3,4.6,4.4,24.3,4.8,27.5Z" fill="#c1c1c1"/></g><g><path d="M1221.5,918.7c-5.1-5.1-7.8-6.4-16.3-8.8-11.2-3-32.5-3.4-59.3-1.7-8.5,.7-15.2,.7-15.2,0s1.4-2,3.4-3c28.8-18,45-33.5,64-62,22-32.5,17.9-65.4-9.8-78.9-8.5-4.4-9.1-4.4-24-3.7-13.9,.3-15.9,1-23.4,4.7-4.4,2.4-11.2,6.8-14.9,10.2-3.7,3.4-11.9,10.5-17.9,15.6-13.5,12.2-17.9,17.6-28.8,35.6-12.2,20.3-19.3,34.5-23.7,45.7-2,5.4-4.4,9.8-5.4,9.5-.7-.3-2-3-3-5.8-8.5-28.1-10.8-35.2-15.2-43.3-9.5-17.3-32.2-45.4-52.5-64.3-22.4-21.3-49.4-30.5-65.4-22.3-8.5,4.4-17.3,18.6-20.3,31.5-2.7,12.9-1.7,19.6,4.1,34.5,12.9,32.2,25.4,49.8,57.9,81.6,12.9,12.5,23.4,23.4,23.4,23.7,0,.7-9.5,1.4-21.3,1.7-11.9,.3-24.7,1.7-28.8,2.7-4.1,1.4-10.2,2.4-13.5,3-15.9,2.4-52.5,15.6-67.1,24-16.6,9.8-23.7,16.9-33.2,32.8-7.4,12.9-10.2,28.1-6.4,36.2,4.1,8.8,15.6,18,26.1,20.7,5.4,1.4,49.4,1,60.6-.7,5.1-.7,12.2-2.4,15.6-4.1,19.6-7.8,25.4-9.8,38.9-13.5,8.1-2.4,16.9-4.7,19-5.4,2.4-.7,5.8-1.4,7.1-1.4,3,0,3,.3,1,3.7-1,2-4.7,8.1-8.1,13.2-7.5,11.5-27.4,50.8-31.8,63-1.7,4.7-3.7,9.5-4.1,10.2-.7,.7-3,8.1-5.4,16.3-5.8,19.3-7.1,47.7-3.4,59.3,5.8,17.3,12.9,27.8,21.7,31.5,12.5,5.8,28.8-.3,42.7-14.9,8.1-9.1,20.7-30.5,23.4-39.6,.7-2.7,1.7-5.8,2.4-6.4,.7-.7,2.7-5.1,4.4-9.5,2-4.4,5.8-13.2,8.5-19.6,2.7-6.4,5.8-13.9,6.8-16.6,2-5.1,3-7.8,9.1-21.3,5.4-11.9,10.5-28.1,12.9-42,.7-3,1.7-6.1,2.4-6.4,.7,0,2.7,3,4.7,7.5,1.7,4.4,4.7,11.5,6.8,15.9,7.5,16.3,17.3,39.3,18.3,42.7,2.7,9.5,16.9,32.5,26.4,43,8.8,9.8,13.9,11.9,27.8,11.9s12.9-.3,20-4.7c4.4-2.7,8.5-6.4,10.2-9.5,3.7-6.4,7.5-27.4,6.8-36.6-1.4-15.2-18.6-43.4-40-65.7-5.8-5.8-13.9-14.9-17.6-19.6-4.1-4.7-10.8-11.2-15.6-14.9-12.5-9.1-12.2-9.8,6.8-8.5,8.8,.7,28.1,1,43,1,26.1,0,27.4-.3,36.2-3.7,17.3-6.8,31.2-18.3,37.9-31.5,6.4-12.2,2.4-31.8-8.5-42.7Z" fill="#c16b5d"/><path d="M1077.3,911.8c0-5.1,1-6.1,11.5-16.3,6.1-6.1,11.9-11.2,12.5-11.2s4.7-3,9.1-6.8c4.4-3.7,10.8-8.1,13.9-9.5,3-1.7,6.1-3.4,6.4-4.1,1-1.7,24.7-13.5,27.1-13.5s4.7-3.4,4.1-5.8c-2-4.7-9.8-1.7-32.5,12.2-22.4,13.9-51.1,35.2-57.2,42.7-1.4,1.4-3,2.4-4.4,2.4s-4.4,1.7-7.1,3.4c-4.4,3-5.1,4.1-5.1,9.1s1,7.1,2,8.8c5.4,7.8,19.6-.7,19.6-11.5Zm-10.8,.3c.7-.3,1.4,0,1.4,1.4s-.7,2-1.4,2-1.4-.7-1.4-1.4,.7-1.7,1.4-2Z" fill="#914543"/><path d="M1011.9,948c5.4,4.4,10.8,3.4,16.3-2.4,3.7-4.1,4.4-5.8,4.1-9.5-.3-4.1,0-4.4,5.8-7.1,3.7-1.4,6.8-3.7,7.1-5.1s2-4.1,3.4-6.1c2-3.4,2-3.7,0-8.5-1.4-2.7-4.1-5.8-7.1-7.1-2.4-1-5.4-4.1-6.8-6.8-1-2.4-5.4-10.2-9.8-16.9-10.2-16.6-12.9-21.3-20-35.2-3.4-6.4-8.5-15.2-11.2-19.3-2.7-4.4-6.8-10.8-9.1-14.9-5.1-9.1-6.4-10.5-9.1-9.5-3,1.4-3,6.4,0,9.1,1,1,3,3.4,4.1,5.8,1,2.4,2.4,5.1,3,6.1,.7,1,5.8,10.2,11.2,20.3,5.8,10.2,11.5,20.7,13.2,23.7,8.5,14.6,16.3,30.5,15.2,30.5-1.7,0-19.6-19-22.7-23.7-1.4-2.4-5.8-8.5-10.2-13.5-7.5-9.5-20.3-26.8-35.9-49.1-8.1-11.5-11.9-14.2-12.5-9.5-1,4.1,18.3,32.5,35.9,53.5,4.1,4.7,7.1,8.8,7.1,9.1,0,2,10.2,15.2,24,31.2,15.9,17.9,15.6,17.9,16.9,32.5,.3,3-5.1,4.7-7.5,2-2-1.7-8.5-1.7-16.3,0-3,.7-12.9,2.7-21.3,4.1-52.2,9.5-101.3,26.8-120.9,42.3-5.1,4.1-6.4,8.1-3.4,9.5,1,.3,5.8-2.4,10.5-5.8,8.5-6.4,16.9-10.5,37.3-18.3,18.3-7.1,31.2-11.2,42-13.5,6.1-1,12.9-2.7,14.9-3.4,5.4-1.7,6.1-1.7,6.1,0s-1,1.7-2.4,2.4c-1.4,.3-13.5,5.1-27.4,10.5-47.7,19.3-56.9,23.7-55.2,28.1,1.4,3.4,2.4,3,12.2-2.4,4.7-2.7,9.5-4.7,10.2-4.7,1,0,5.4-1.7,10.2-3.7,4.7-2.4,13.2-6.1,19.3-8.5,6.1-2.4,12.9-5.4,15.6-6.4,7.1-3,31.5-11.2,33.5-11.2s1.7,.3,.3,2c-1,1-2.4,2-3.4,2-1.7,0-10.5,4.4-21.7,10.8-4.4,2.4-12.9,7.1-18.3,10.2-9.1,5.1-10.2,6.1-10.5,9.8-.3,2.7,0,4.4,1,4.4s5.4-2.7,10.5-5.8c16.6-10.8,62.3-34.9,66-34.9s3.7,1.4,5.8,2.7Z" fill="#914543"/><path d="M972.3,1072c-3.7,7.8-10.2,28.1-10.2,31.5s-.7,3-1.4,3.7c-.7,1-2,4.7-2.7,8.8-.7,4.1-2.4,14.2-4.1,22.4-3.4,18.6-3.4,21,0,21s5.8-7.8,8.8-30.5c1.4-8.8,3.4-17.6,4.4-19,1-1.4,1.7-3.7,1.7-5.4s1-4.4,2-6.4c1-2,3-7.8,4.7-12.9,3.7-13.2,13.5-37.6,23.7-59.3,2.4-5.1,4.7-10.8,5.4-12.5,.3-1.7,1.4-3,2.4-3,1.7,0,.3,8.5-3,19.6-3,10.8-4.7,16.9-7.5,28.4-1.4,5.1-4.1,14.9-6.1,21.7-2.4,6.8-4.4,14.6-5.4,17.6-.7,3-3.4,11.5-6.1,19-15.2,41.7-16.9,47.7-14.6,49.8,2.4,2.7,7.1-1.7,7.1-7.1s1.4-7.1,2.7-11.5c1.4-4.4,2.7-9.1,2.7-10.5s1-4.7,2.7-7.5c1.4-3,3.7-9.5,5.4-14.6,1.7-5.4,3.7-10.8,4.7-12.2,1-1.4,2-4.4,2.7-6.8,.3-2.4,3-11.2,5.8-19.6,5.8-19.6,10.8-36.9,12.9-44,3-11.9,6.8-22.4,7.8-22.4s2.4,4.1,3.4,14.9c.7,8.1,0,13.2-4.1,33.2-1,4.1-11.9,38.9-14.2,44.7-8.1,20.7-16.6,45.4-17.3,51.1-.3,4.1,0,5.1,1.4,5.1,2,0,6.4-8.5,9.1-19,1-3.4,2.7-7.5,3.7-8.8,1-1.4,1.7-4.1,1.7-5.8s1.4-5.4,2.7-8.5c1.4-2.7,3.4-7.4,4.4-10.5,5.1-12.9,10.2-28.8,12.2-35.6,1.4-4.1,3.4-10.5,4.4-14.2,3.7-11.5,5.4-28.4,3.7-37.9-1-4.4-2-12.9-2.4-19-.7-9.1-1.7-11.5-4.4-14.6-5.8-6.1-8.8-5.1-14.9,4.7-2.7,4.7-7.5,13.5-10.5,20-2.7,6.4-8.1,17.6-11.5,25.1-3.7,7.4-7.5,17.3-8.8,21.7-1.4,4.4-3.7,11.2-5.4,14.9Z" fill="#914543"/><path d="M1065.4,897.2c3.7-.3,7.5-3.4,21.3-16.9,14.2-13.9,30.1-27.4,56.9-48.1,3.4-2.7,9.8-7.5,14.2-11.2,4.4-3.7,10.8-8.1,13.9-10.2,3.7-2.4,5.4-4.4,4.7-5.8-1.4-4.1-7.1-2-15.9,5.8-4.7,4.4-12.5,10.8-17.6,14.6-14.2,10.5-38.3,30.1-49.4,40-11.2,10.2-13.5,11.5-13.5,9.8s14.2-19.6,25.4-31.8c8.1-8.8,30.1-29.5,41.3-38.9,11.5-9.8,14.6-12.5,14.6-14.6s-1-1.7-2.7-1.4c-5.1,.7-63.7,56.2-71.1,67.1-1.4,2.4-6.4,8.8-11.2,14.2-9.1,11.5-17.3,24.7-15.9,26.7,.3,.7,2.7,1,5.1,.7Z" fill="#914543"/><path d="M1055.3,950.1c2.7,2.6,7.5,3.3,26.8,4.7,19.8,1.4,40.5,4.3,73.7,10.6,4.3,.7,12.1,2.4,17.8,3.2,5.7,.8,13.3,2.7,16.8,3.6,4.2,1.2,6.9,1.1,7.5-.3,2.1-3.7-3.2-6.7-14.9-8.1-6.4-.6-16.4-2.2-22.6-3.5-17.3-3.7-47.9-8.6-62.7-10.4-15-1.6-17.6-2.5-16.3-3.6,1.5-1.4,24.1-2.4,40.7-2.2,12,.2,42,3,56.6,5,15,2.1,19,2.6,20.6,1.2,.8-.7,.6-1.9-.8-2.9-3.9-3.3-84.3-10.3-97.4-8.6-2.7,.6-10.9,1-18.1,1.1-14.7,.8-30,3.5-30.6,5.9-.3,.7,1,2.7,2.9,4.2Z" fill="#914543"/><path d="M1069.1,985.3c0,3.4,8.8,27.8,13.2,36.6,2.4,4.4,7.1,14.2,10.5,21.7,21,44.4,23.4,48.8,34.9,63.3,2.4,3,4.7,5.1,5.4,4.7,1-.3,2-3,2-6.1,.3-5.4,0-5.8-4.1-7.8-2.7-1.4-6.4-5.4-9.5-10.5-6.4-10.2-32.5-67.4-31.5-68.7,1-.7,2.4,1,13.9,14.2,24,28.8,35.6,44,41.7,55.5,4.1,8.1,6.4,9.5,9.5,6.8,3-3.4,2.4-7.1-1.7-12.5-2.4-2.7-5.1-6.8-6.1-9.1-1-2.4-4.4-6.4-7.1-9.5-2.7-2.7-8.5-9.5-12.5-14.9-4.1-5.1-11.2-13.5-15.9-18.3-9.1-9.8-16.3-19-25.4-33.9-3.7-5.4-8.1-11.2-9.8-12.5-3.7-2.7-7.5-2.4-7.5,1Z" fill="#914543"/><path d="M1087.4,930.1c-1.7-1.4-4.4-2.4-6.1-2.4-5.1,0-7.5,11.9-3,16.6,2.7,3,4.1,3,11.9-1,14.6-7.8,73.1-14.2,87.7-9.8,4.7,1.4,5.8,1.4,7.1-1,5.8-7.8-8.5-9.1-50.8-5.4-13.9,1.4-26.4,2.4-27.8,2.4s-5.4,.7-9.1,1.4c-5.1,1.4-6.8,1-9.8-.7Z" fill="#914543"/><g opacity="1"><path d="M1015.4,952.5c-2.4,0-10.8,8.5-13.5,13.2-2,4.1-1.7,11.2,1,14.2,5.1,5.8,15.2,.7,18.6-9.8,2-6.4,2-6.8-.7-12.2-1.7-3-4.1-5.4-5.4-5.4Z" fill="#fff"/><path d="M1029,954.5c0,1.4,1.7,4.1,4.1,6.1,7.8,8.1,20.3,3.4,20.3-7.5s-4.4-12.5-12.2-8.1c-2,1-4.7,2-6.4,2-3,0-5.8,3.4-5.8,7.5Z" fill="#fff"/><path d="M1030.3,916.9c-1.7-4.4-7.8-9.1-11.9-9.1s-8.8,5.1-13.2,11.5c-3,4.4-.7,9.5,7.1,14.2,7.8,4.7,9.8,5.1,9.8,.7s1-3.4,2.7-4.1c4.1-1.4,7.1-9.1,5.4-13.2Z" fill="#fff"/><path d="M1089.3,928.8c-3.4-1-4.7-.3-9.1,4.4-6.1,6.8-6.4,9.5-1.7,15.2,4.7,5.4,9.8,5.4,16.3,0,3.4-3,4.7-5.4,4.7-8.5,0-4.4-4.7-9.8-10.2-11.2Z" fill="#fff"/><path d="M1043.9,975.9c-2.4,0-4.1,.3-4.1,1s-2,2.4-4.4,4.1c-3,1.7-5.1,4.4-6.1,7.8-2.4,7.5-2,8.8,1,12.9,4.1,5.4,12.9,5.1,18.6,0,6.1-5.8,6.8-10.2,2.7-18.6-3.4-6.1-4.4-7.1-7.8-7.1Z" fill="#fff"/><path d="M1063.9,927.8c5.4-5.1,6.1-11.5,1.7-15.9-4.1-4.1-9.8-3.4-15.6,1.7-8.8,7.4-10.2,12.9-5.1,19,4.1,4.4,11.2,2.7,19-4.7Z" fill="#fff"/><path d="M1071,958.3c-2.7,1.7-5.8,3.7-7.5,4.1-2,1-2,1.4-1,2.7,1,1,1.7,2.4,1.7,3.7s1.4,3.4,3,5.1c2,2,4.4,3,7.8,3,8.8,0,13.2-8.5,9.5-18.3-1.7-4.4-7.5-4.4-13.5-.3Z" fill="#fff"/></g></g><g><path d="M382.9,565.7c4.3-3.4,10.2-4.4,15.4-5.9,6.7-1.9,13.6-3.7,20.1-6.1,5.7-2,7.2-6.8,.5-8.9-4.4-1.4-9.8,0-14.2,1-11.8,2.6-23.7,6.1-35,10.4-9.4,3.6-36.8,15.1-41.8,.2-5-15,11-30.4,22.7-37.2,4.2-2.4,16.5-4,18.6-8.3,1.9-4-1.9-6.4-5.3-6.8-6.4-.9-13.9,1.7-20.2,2.8-7.7,1.4-15.5,2.7-23.3,2.3-4.4-.2-10.5-.5-14.6-2.1-3.7-1.4-7.9-5.1-11.1-7.5-12.6-9.5-7.8-24.1,5.3-30.9,9-4.7,31.4-6.4,31.8-20.3,.4-13.7-14.9-10.5-23.1-9.5-8.5,1-17.8,3-25.6-1.5-5.8-3.3-13.1-8.5-14.9-15.3-1.5-5.5-1.1-10.8,2.4-14.9,5-5.8,9.6-10.7,16.9-13.9-6.4-6.9-16-11.4-19.4-20.6-4.4-11.7-4-21.8,2.8-32.4,2.5-3.8,3.7-5.7,8.2-6.5,7-1.2,14.3-1.3,20.8,1.5,6,2.6,12.5,4.7,18.4,7.6,3.6,1.8,6.3,3.9,8.7,7.1,.4,.5,4.1,6,4.6,5.4,2-2.9,1.5-7,4-9.9,2.1-2.5,5-3.6,8-4.5,8.8-2.7,17-1.8,25.1,2.6,14.9,8.2,16.4,28.7,20.5,43.5,1.6,5.9,4.4,29.7,13.3,28.4,4-.6,5.4-8,6.9-11.5,3.1-6.9,5.4-14.1,9.1-20.8,3.5-6.4,8.8-13.1,16.5-14.5,8.5-1.5,14.2,4.9,15.7,12.6,2.7,13.8,.1,28.7-1.7,42.4-.8,6-2.3,13.8-.8,19.9,2.8,11.8,9.9,3.6,15.4-1.3,5.3-4.7,9.9-10.9,15.8-14.7,5.1-3.3,11.5-.9,16.8,1.3,8.4,3.5,12.2,7.8,10.9,17.5-.6,4.7-1.5,9.8-3.5,14.2-3.1,6.9-8.2,13-12.1,19.4-4.6,7.5-8.6,15.5-11.9,23.7,1.9-.8,.4,3,.5,3.4,.6,2.3-.5,2.3,2.5,3.3,3.9,1.3,10.7-1,14.3-2.5,5.1-2.1,13.4-8.1,18.7-3.3,8.8,8,.3,24.5-5.5,31.4-3.3,3.9-19.2,20.7-13.9,27,2.7,3.2,9.5-.7,13-.5,5.3,.3,8.1,5.4,9.5,10.2,3,10.5-2.8,23.4-4.5,33.8-.6,3.4-1.5,7.5-1.2,10.8,.2,3.5,2,5.4,4.4,7-1.6,1-18.8,2.5-25.7,1.8-11.3-1.2-22.6-1.9-33.9-3.6-9-1.3-21.5-4.3-26.8-12.5-9.2-14.5,13.5-17.4,21.6-19.6,10.7-2.9-4.9-9.8-9.7-10.3-10-1.2-20.9,4.4-30.1,7.4-8.7,2.7-22.1,7.4-31.1,3.4-11.6-5.2-6.1-19.2,1.5-25.2Z" fill="#c1ab8e"/><path d="M362.7,841.7c-3.6-3.3-5.2-8.3-7.2-12.7-2.6-5.6-5.1-11.4-8-16.8-2.5-4.7-6.9-5.4-7.8,.8-.6,4.1,1.3,8.6,2.7,12.3,3.9,10,8.5,19.9,13.8,29.2,4.4,7.7,18.1,30.2,5.7,36.5-12.4,6.4-28.1-5.5-35.6-14.9-2.7-3.4-5.7-13.9-9.8-15.1-3.8-1.1-5.3,2.5-5.3,5.5,.1,5.7,3.4,12,5.2,17.3,2.2,6.5,4.5,13.2,5.1,20.1,.4,3.9,.9,9.2,.1,13.1-.7,3.4-3.4,7.6-5.1,10.7-6.7,12.3-20,10.1-27.8-.5-5.3-7.2-9.8-26.7-22-25.1-12,1.5-7.2,14.4-5.2,21.5,2,7.3,5,15.2,2.1,22.6-2.1,5.5-5.7,12.6-11.4,15.1-4.6,2-9.3,2.4-13.4-.1-5.8-3.6-10.7-7-14.4-12.9-5.2,6.6-7.9,15.5-15.4,19.8-9.6,5.4-18.6,6.4-28.8,1.9-3.7-1.6-5.4-2.5-6.7-6.3-2-5.9-3.1-12.3-1.5-18.4,1.5-5.6,2.5-11.6,4.2-17.1,1.1-3.4,2.6-6,5-8.5,.4-.4,4.7-4.4,4.1-4.7-2.8-1.4-6.3-.4-9.2-2.1-2.4-1.5-3.8-3.9-5-6.4-3.5-7.4-3.9-14.7-1.1-22.4,5.2-14.1,22.9-18.2,35.3-23.8,4.9-2.2,25.4-7.8,23-15.4-1.1-3.4-7.8-3.6-11-4.5-6.5-1.8-13.1-2.8-19.4-5.1-6-2.2-12.7-6-14.9-12.5-2.4-7.3,2.4-13.1,8.9-15.4,11.7-4.2,25.1-3.9,37.4-4.2,5.4-.1,12.4,.1,17.5-1.9,9.9-4,1.9-9.1-3.2-13.3-4.8-4-10.8-7.2-14.9-11.9-3.6-4-2.3-10-1.1-14.9,1.9-7.9,5.2-11.7,13.8-11.9,4.2,0,8.7,0,12.9,1.2,6.4,1.8,12.4,5.4,18.6,8,7.2,3,14.7,5.5,22.3,7.3-1-1.6,2.6-.8,2.9-.9,1.9-.8,2,0,2.5-2.6,.7-3.6-2.3-9.3-4.1-12.2-2.5-4.1-8.9-10.7-5.4-15.9,5.8-8.8,21.4-3.5,28.2,.6,3.8,2.3,20.6,14,25.5,8.6,2.5-2.8-1.9-8.2-2.2-11.3-.5-4.7,3.6-7.8,7.6-9.6,8.8-4,20.8-.7,30.2-.6,3,0,6.7,.3,9.7-.4,3-.7,10.3,11.3,10.5,17.5,.5,10.1,1.3,20.1,1.4,30.1,0,8-.8,19.4-7.4,25.1-11.4,10-17-9.5-20-16.3-3.9-9-7.9,5.6-7.8,9.9,.3,8.9,6.7,17.7,10.5,25.4,3.5,7.2,9.4,18.4,7.1,26.7-3,10.9-16,7.9-22.3,2.1Z" fill="#a59179"/><path d="M206.3,631.7c2.2-4.4,6.6-7.3,10.2-10.4,4.6-4,9.5-8,13.9-12.3,3.8-3.8,3.3-8.1-2.9-7.3-4.1,.5-7.9,3.6-11.1,6.1-8.5,6.5-16.8,13.7-24.2,21.4-6.2,6.4-23.9,25.8-33.5,15.7-9.6-10.2-2.5-28.5,4.4-38.3,2.5-3.5,11.8-9.4,11.8-13.6,0-3.9-3.9-4.4-6.8-3.5-5.5,1.7-10.6,6.6-15.2,9.8-5.7,4-11.4,7.9-17.9,10.5-3.6,1.4-8.6,3.5-12.5,3.7-3.5,.3-8.3-1.2-11.7-1.9-13.6-3-15.2-16.4-7.2-26.8,5.5-7.1,22.9-16.8,18-28.1-4.8-11.1-15.9-2.9-22.1,1-6.5,4-13.2,9-21.1,8.3-5.9-.5-13.7-2-17.7-6.8-3.2-3.9-4.9-8.3-3.6-12.9,1.9-6.6,3.7-12.2,8.4-17.4-7.7-3.2-17.1-3.3-23.3-9.3-7.9-7.7-11.3-16.1-9.8-27.1,.6-4,.8-5.9,4.2-8.2,5.1-3.6,11-6.4,17.3-6.5,5.8-.1,11.8-.8,17.6-.7,3.5,0,6.5,.8,9.6,2.5,.5,.3,5.6,3.3,5.7,2.6,.5-3.1-1.4-6.2-.5-9.4,.8-2.8,2.7-4.7,4.8-6.6,6.1-5.4,13-7.8,21.2-7.2,15,1.1,23.8,16.9,32.7,27.3,3.5,4.1,14.6,22.3,21.2,17.9,3-2,1.3-8.5,1.3-11.8,0-6.7-.9-13.3-.4-20.1,.5-6.4,2.2-13.8,7.9-17.8,6.3-4.4,13.3-1.3,17.3,4.3,7.3,10.1,10.8,23.1,14.4,34.7,1.6,5.2,3.3,11.9,6.7,16.3,6.6,8.4,9.3-.8,11.9-6.8,2.5-5.7,3.9-12.4,7.3-17.7,2.9-4.5,8.9-5,14-5.2,8.1-.3,12.7,1.7,15.3,10,1.3,4.1,2.4,8.4,2.4,12.7,0,6.7-1.8,13.5-2.5,20.1-.9,7.7-1.2,15.7-.8,23.5,1.2-1.4,1.5,2.3,1.7,2.6,1.3,1.6,.5,2,3.2,1.7,3.6-.4,8.3-4.8,10.6-7.3,3.3-3.6,7.8-11.5,13.8-9.6,10.1,3.2,9.3,19.6,7.2,27.3-1.2,4.3-7.8,23.7-1.2,26.8,3.4,1.6,7.4-4.1,10.3-5.2,4.4-1.7,8.5,1.3,11.4,4.7,6.3,7.3,6.4,19.8,8.9,28.8,.8,2.9,1.6,6.5,3.1,9.2,1.5,2.7,3.6,3.6,6.2,4-1,1.4-14.2,9-20,11-9.5,3.2-18.9,6.9-28.6,9.7-7.7,2.3-18.9,4.6-26.1,0-12.8-8.2,4.4-19,10.1-23.7,7.5-6.3-7.6-6-11.7-4.7-8.5,2.8-15.1,11.3-21.5,17.1-5.9,5.4-15,14.1-23.7,14.3-11.3,.1-12-13.1-8.2-20.9Z" fill="#a59179"/><path d="M213.2,788.3c-1.5-4.3-.5-9.2-.2-13.7,.4-5.8,.9-11.6,.9-17.4,0-5-3.3-7.6-6.9-2.9-2.4,3.1-2.8,7.7-3.3,11.4-1.3,10-2,20.2-1.7,30.3,.2,8.3,1.4,33-11.8,32.6-13.3-.4-21-17.3-22.9-28.4-.7-4,1.5-14-1.3-16.9-2.6-2.6-5.6-.3-6.9,2.1-2.5,4.7-2.6,11.4-3.5,16.6-1.1,6.4-2.3,12.8-4.8,18.8-1.5,3.4-3.4,8-5.8,10.8-2.2,2.5-6.3,4.7-9.1,6.5-11.1,7-21.3-.8-22.9-13-1.1-8.3,4-26.3-6.9-30.6-10.7-4.2-12.5,8.6-14.1,15.3-1.6,6.9-2.7,14.7-8.5,19.6-4.3,3.6-10.5,7.8-16.4,7.2-4.8-.4-8.9-2.2-11.1-6.2-3.2-5.6-5.8-10.6-6.1-17.1-7.3,3-13.6,9.2-21.9,9.2-10.5,.1-18.4-3.1-24.9-11.5-2.3-3-3.4-4.5-2.8-8.2,1-5.8,3-11.5,7.1-15.8,3.8-4,7.3-8.4,11.3-12.1,2.4-2.3,4.9-3.8,8.1-4.7,.5-.2,5.9-1.5,5.6-2-1.7-2.4-5.1-3.2-6.7-5.9-1.3-2.4-1.4-4.9-1.3-7.6,.4-7.7,3.4-13.8,9.3-18.8,10.7-9.2,27.4-4.6,40.3-3.5,5.1,.4,24.8,5.1,26.2-2.2,.6-3.3-4.8-6.5-7.1-8.7-4.6-4.4-9.6-8.2-13.9-13-4-4.6-7.9-10.6-6.7-17,1.3-7.1,8-9.6,14.5-8.6,11.7,1.9,22.8,8.2,33.1,13.5,4.5,2.4,10.3,5.7,15.5,6.3,10.1,1.2,5.7-6.6,3.4-12.4-2.2-5.4-5.8-10.9-7.1-16.5-1.1-4.9,2.6-9.2,5.8-12.7,5.2-5.6,9.6-7.3,16.9-3.5,3.6,1.9,7.3,4,10.2,6.8,4.5,4.4,7.9,10.1,11.9,15,4.6,5.7,9.8,11.2,15.3,16.1,0-1.7,2.5,.5,2.9,.6,1.9,.2,1.7,1,3.3-1,2.2-2.6,2.3-8.7,2.1-11.9-.2-4.5-2.6-12.8,2.7-15.5,8.9-4.6,19.5,6.8,23.3,13.3,2.2,3.7,10.9,20.9,17.4,18.6,3.3-1.2,2.2-7.6,3.3-10.3,1.8-4.1,6.6-4.8,10.7-4.5,9.1,.7,17.7,8.9,25.4,13.2,2.5,1.4,5.5,3.3,8.2,4.1,2.8,.8,4.9,0,6.8-1.4,.3,1.6-3.4,15.4-5.9,20.6-4.2,8.5-8,17.1-12.5,25.4-3.6,6.6-9.5,15.5-17.5,17.3-14.1,3-9.9-15.5-9.3-22.4,.8-9.1-9.2,1-11,4.6-3.8,7.5-2.4,17.5-2.8,25.6-.3,7.5-.5,19.4-6.2,25.2-7.4,7.6-16.9-.8-19.5-8.4Z" fill="#c1ab8e"/><path d="M200.2,943c2.8-7.1,6.9-13.4,11-19.8,14.5-22.3,31.3-42.3,48.1-62.8,16.2-19.8,32.8-39.7,51.5-57.1,16.3-15.1,31.1-32,48-46.4,10.9-9.3,21.4-19.9,31.2-30.5,2.5-2.7,21.1-61.2,16.3-62.9-2.2-1-105.6,41.7-107.2,42.9-6,4.2-14.4,5.5-21.4,7.5-12.2,3.5-24.5,6.2-36.8,9.4-23.1,6-46.5,11.5-69.3,18.5-22.6,6.9-44.9,16.2-67,24.5-19.4,7.3-38.9,13.7-56.8,24.6-4.9,3-4.4-.8,2-4.2,22.2-11.8,45.3-20.5,68.6-29.8,22.5-8.9,45.4-17.7,68.9-23.5,20.5-5,40.5-12.2,61.2-16.3,13.3-2.7,26.9-6.7,39.8-10.9,3.7-1.2,107.4-48.2,113.2-50.1,18.4-6.1,42.1-12.3,41.5-13.3-.4-.3-18.9-3.7-41.6-4.2-37.3-.8-60.2-2.9-69.1-4.3-7.6-1.3-14.9-6.6-21.6-10.2-11.8-6.4-23-13.6-34.5-20.3-21.8-12.7-43.3-26-65.6-37.7-22.1-11.6-45.7-21.3-68.4-31.5-20-9-39.4-18.7-61-23.9-5.9-1.4-2.7-3.9,4.6-1.7,25.5,7.7,49.3,18.3,73.7,28.7,23.5,10.1,47.2,20.5,69.2,33.7,19.1,11.5,39.4,21,57.9,33.3,12,7.9,25.1,15,37.9,21.5,8.8,4.4,57.4,4.9,59,5.5,0,0,0,0,0,0,3.9,0,8.1,0,13.1,0,16.9,.3,39.4,2.3,50.1,2.9,11,1,32.1,4.3,46.6,8.1,15,3.9,56.8,19.1,58.9,19.2,4.8,1.2-26-28.1-37.3-35.5-8.1-5.6-13.7-15.6-19.5-23.4-10.2-13.8-19.3-28-29.1-42.1-18.4-26.4-36.3-53.3-55.8-78.8-19.3-25.3-41.5-49.2-62.4-73.1-18.4-21.1-4.3-12.2,18.4,13,21.9,24.3,43.7,49,62.1,76,15.9,23.5,34.3,45.4,49.3,69.6,9.6,15.6,21,30.9,32.4,45.2,7.8,9.8,106.3,86.6,116.6,93.5,38.9,26.2,62.8,61.5,80.4,89-2.5,1.3-4.6,2.9-6.4,4.6-6.2-10.2-14.9-23.2-27.7-38.8-49.6-60.3-126.3-95.1-136.3-97.1-3.5-.9-7.8-2-10-2.9-1.8-.7-7.4-2.9-11.9-4.5-4.5-1.6-15.1-5.1-23.2-7.4-14.4-4.7-63.9,5.3-70.3,8.1-3.6,1.8-21.2,63.1-21.6,63.9-3.4,6.9-10.4,12.5-15.8,17.9-9.4,9.5-19.4,18.3-29.1,27.5-18.3,17.4-37,34.4-54.4,52.6-17.3,18-33.2,38-49.2,57-14.2,16.8-28.9,32.7-39.9,51.9-3,5.3-6.6,10.4-8.7,16-.7,1.8-3.1,0-2.6-1.1Z" fill="#4f3734"/></g><g><path d="M1361.9,793.6c79-83.1,194.7-126,209.7-127.9,5.2-.9,11.4-2,14.7-3.1,2.8-.9,11.1-3.4,17.9-5.3,5.1-1.4,14.1-3.7,23.1-5.8,.1,.2,.3,.4,.5,.7,.3-.4,.6-.7,.9-1,3.5-.8,7-1.6,10.2-2.2,21-5.2,94.6,14.9,103,19.3,3.8,2.2,6.3,7.4,7.7,15.8,.8,4.8,1.2,10.8,1.2,17.7,0,4.4,.5,9.2,1.4,14.7,.9,5.4,2.1,11,3.5,16.9,2.9,9.7,5.4,19.4,5.8,21.5,.5,2.4,1.5,4.1,2.9,4.9,1.2,.6,2.6,.6,4.3,0,2.2-.9,3-2.2,2.6-4.3-.2-1.5-1.1-3.3-2.3-5.1-4.2-6.1-7.2-22.5-8.3-29.3-4-24.8-3.5-40.9,1.5-42.3,6.2-1.7,115.7,54.1,122.6,59,6.6,4.4,10.8,6.2,12.6,5.4,.9-.4,1.3-1.7,1.6-5-.4-2.3-3.9-4.8-15.1-10.9-8.9-4.8-105.7-52.3-114.2-55.8-11-4.5-23.3-9.2-33.9-13.2-15.3-5.8-29.8-8.6-39.4-10.4-4.8-.9-9.4-1.8-9.9-2.2h-.9l1.5-1.7c3-1.5,55.6-2.8,85.4-1.3,28.1,1.4,43.5,3,51.9,3.9l3.4,.4q4.3,.4,4.9-.7c-.7-4.5-19.5-8-52.8-9.6-18.2-.9-41.8-.9-57.4-.9h-15.8c-16.8,.3-47.8,3-68.6,6.8-.6,.1-1.1,.2-1.7,.3,18-19.6,29.3-31.2,36-38.1l3.5-3.6q4.3-4.5,4.1-6c-3.7-2.5-23.1,15.3-54.5,49.9-6.5,1.3-12.9,2.7-18.7,3.9-8.7,1.9-13.1,2.8-14.4,2.8-5.9,1-40.9,10.3-75,25.7-11.1,5-19.9,9.9-26.3,13.5-4.9,2.8-9.5,5.4-10.3,5.2l-1.3-1.7c0-1.5,7.2-9.7,15.9-18.3,10.4-10.2,34.5-26.8,47.9-32.8l3.2-1.5c8-3.6,8.5-3.8,8.3-9.7-2.6-1.2-12.4,3.7-20,8-9.4,4.8-21.8,12.5-25.4,14.7-5.5,3.5-19.3,15.9-30.4,28.4-15.4,17.3-20.6,23.2-27.7,27.2,0,0-11.7,7.2-12.2,7.6-48.9,33.9-98.6,85.6-126.1,121.9l-.6,.8,.8,.6c1.7,1.2,3.2,2.5,6,3.7,12.9-17.8,26.9-34.6,42.8-51.3Z" fill="#6c7c6d"/><g><path d="M1575.2,628.4c-.4-.5-.9-1.1-1.3-1.6,3.6-1.9,6.3-4.5,7.1-7.1,2.1-6.4-.6-11.7-5.3-14.5,2.3-5.7,1.9-11.6-2.1-15.4-4.6-4.5-12.5-4.6-19.2-2.1-1.1-8.5-8.9-16.2-19.2-17-8.1-.6-14.9,3.2-18.7,8.3-1.5-.6-3-1.1-4.6-1.4-10.9-2-17.5,3.1-20.3,13.5-.2,.8-.4,1.6-.5,2.4-12.6,3.4-18.3,24.8-5.6,31.7-4,7.2-4.1,16.5,1.1,23.9,4.3,6.1,11,9.2,17.5,9.7,.5,2.3,1.4,4.7,2.9,7.2,6.5,11.3,28.2,15.1,38.4,3.2,2.2-2.6,3.6-5.6,4.3-8.7,17.6,7.7,41.7-11.5,25.4-32.2Z" fill="#fff"/><path d="M1525.8,624c3,17.5,30.5,5.6,25.3-7.4-5.1-12.8-27.1-7.6-25.3,7.4Z" fill="#133a19"/></g><g><path d="M1736.8,813.1c.5-.6,1-1.2,1.5-1.8,2.9,3.7,6.3,6.2,9.4,6.6,7.7,1.1,13.1-3,15.3-8.9,6.8,1.4,13.5-.2,17-5.5,4.1-6.1,2.6-15-1.5-22,9.3-2.9,16.5-13.3,15.3-25.1-.9-9.2-6.6-16.1-13.1-19.4,.4-1.8,.7-3.7,.7-5.4,.1-12.7-7-19.1-19.3-20.2-1,0-1.9,0-2.8-.1-6.4-13.6-31.7-15.6-36.9,0-8.9-3-19.4-1.3-26.7,6-6,6.1-8.1,14.2-7.4,21.7-2.4,1-5,2.6-7.6,4.8-11.4,9.6-11.3,34.8,4.1,44,3.4,2,7,2.9,10.7,3.1-5.1,21.4,21.4,44.7,41.4,22.2Z" fill="#fff"/><path d="M1731.8,756.5c-19.2,6.9-.1,35.5,13.5,27.1,13.4-8.3,3.1-32.1-13.5-27.1Z" fill="#133a19"/></g><g><path d="M1735.4,528.2c-.8,0-1.6,.1-2.4,.2,.6-4.6,0-8.8-2-11.4-4.6-6.2-11.4-7.1-17-4.6-3.8-5.9-9.6-9.4-15.8-8.2-7.3,1.4-12.5,8.7-14.6,16.6-8.6-4.6-21.1-2.3-28.5,6.8-5.9,7.2-6.8,16.1-4.6,23-1.6,1-3.1,2.1-4.3,3.4-9.1,8.9-8.6,18.4-.8,27.9,.6,.8,1.3,1.4,1.9,2.1-5.1,14.1,11.2,33.5,26,26.2,4.1,8.4,12.8,14.7,23.1,14.7,8.5,0,15.8-4.2,20.6-10,2.4,1,5.3,1.7,8.7,2,14.8,1.3,32.7-16.5,28.3-33.9-1-3.8-2.9-7.1-5.3-9.8,18.8-11.4,16.7-46.7-13.4-45.1Z" fill="#fff"/><path d="M1698.7,571.5c18.4,8.7,25.3-24.9,9.7-28.6-15.3-3.7-25,20.4-9.7,28.6Z" fill="#133a19"/></g><g><path d="M1890.6,649.3c-.2-.6-.5-1.2-.7-1.9,3.9-.6,7.1-2.1,8.8-4.2,4-5.2,3.2-10.9-.2-14.9,3.9-4.4,5.4-10,3-14.7-2.8-5.6-9.9-8.1-16.8-8,1.7-8-3-17.6-12.1-21.6-7.2-3.1-14.6-1.8-19.7,1.6-1.2-1-2.4-2-3.7-2.7-9.3-5.3-16.9-2.7-22.8,5.8-.5,.7-.8,1.4-1.3,2-12.6-.9-24.6,16.8-15.2,27.1-5.9,5.3-9,13.7-6.6,22.1,2,6.9,7.1,11.8,12.9,14.5-.3,2.2-.2,4.7,.4,7.5,2.3,12.3,20.9,22.7,34,15.2,2.9-1.7,5.1-4,6.7-6.6,13.6,12.6,41.7,2.8,33.5-21.2Z" fill="#fff"/><path d="M1857.6,618.6c-17.1,1.9-7,29.1,5.8,24.8,12.6-4.2,8.8-25.7-5.8-24.8Z" fill="#133a19"/></g><g><path d="M1944.2,745.1c-.4-.4-.9-.8-1.3-1.2,2.8-2.1,4.8-4.8,5.2-7.2,1.1-6-1.8-10.3-6.1-12.2,1.3-5.3,.3-10.5-3.5-13.5-4.4-3.4-11.1-2.5-16.5,.5-1.8-7.4-9.3-13.3-18.1-12.7-6.9,.4-12.2,4.7-14.9,9.6-1.3-.4-2.7-.6-4-.7-9.5-.5-14.4,4.9-15.7,14.4-.1,.8-.1,1.5-.2,2.2-10.3,4.6-12.7,24.3-1.3,28.8-2.6,6.8-1.6,15.1,3.5,21.1,4.3,4.9,10.3,6.8,15.9,6.5,.7,1.9,1.7,4,3.3,6.1,6.8,9.2,25.5,10,32.9-1.8,1.6-2.6,2.4-5.4,2.7-8.3,15.7,4.7,34-15.3,18-31.7Z" fill="#fff"/><path d="M1911.1,742.7c-10.7-9-21.1,12.2-11.4,17.4,9.6,5.1,20.2-9.2,11.4-17.4Z" fill="#133a19"/></g></g><g><path d="M1627.9,317.5c-1.4-13.7-35.4-18.6-65.2-12-1.9,.4-38.8,10.2-57.9,10.4l-6.1-3,6.4-4.5c5.2-3.7,37.9-21,40.5-20.6,.8,0,1.4-.6,1.7-1.1,.7-1.2,.8-3.3-.2-4.7-.5-.7-1.1-1.3-1.6-1.8-2.9-2.4-6.7-1.7-12.5,2.4l-4.9,3.3c-15.5,10.5-41.4,28-53.9,25.8-26.1-5.3-38.3-5.7-81.4-2.9-9.4,.5-20.8,.5-22.2-.4l-.5-.9v-.5c1-6.3,46.1-35.9,66.5-44.9l1.1-.5c35.7-16,44.2-19.9,50.1-20.1,3.6,.1,7.8-1.3,9.8-2.7,4.5-3.2,38-7.3,47.8-6.5,6.3,.8,7.6,.3,7.9-.1,0,0,.3-.7-1.2-2.7-.4-.6-.9-1.1-1.5-1.6-4.2-3.6-13.2-4.6-27.3-3-2.5,.2-14.8,1.3-16.6-.2h0c-.3-.5-.9-1.3,1.3-8.4,.6-1.9,1.4-5,2.2-8.3,.7-2.9,1.5-6,2.2-8.5,1.4-6.8,2.1-9.3,3.6-10.3,1-.6,2.1-.5,3.4-.1,1.8,.5,8.2,0,16.1-1.2,7.9-1.4,17.8-2,22-2.2,2.2,0,9,.3,9.6-.9,.1-.3,0-1.2-2.3-3.8-.8-1-1.6-1.8-2.2-2.4-1.6-1.3-2.9-1.5-6-.7-2.9,1-8.2,1.2-13.2,1.3-4-.5-10.3,.2-14.5,1.1-8,1.6-8.9,.9-9.6,.3h0c-1.8-2.5,2.9-16.2,7.9-25.8,.5-1.1,.9-2.1,1.3-3.1,6.7-2.7,13.8-6.5,18.2-9.6,12.3-8.7,22.3-18.2,29.1-27.8,21.8-29.5,23.7-33,20.7-35.8-3.6-3.4-5.6-3.5-12.3-1.1-8.4,3-36.7,32.1-45.1,46.1-3.4,6-6.6,10.3-7.4,10.2-1.9-.9,18.9-95.6,19.9-100.3,1.7-11.7-9.5-23-14.5-25.9-13.7-8.5-29.7,18.6-28.8,92.9,.1,11.4,8.4,35.6,8.1,40-.3,3.3-.5,9.2-.5,14.9,.3,0,.7-.1,1-.1-2.1,5.7-4.4,12.6-6.3,19.8-6,22.6-8.7,31.9-13.1,42.4l-.6,1.4q-3.8,9.3-30.9,20.4l-5.4,2.2c-31.6,12.9-40.7,17.2-48.6,22.8-8.1,5.8-11.9,7.1-14.2,5.2-1-.8-1.6-2.3-2-4.7-.9-6.5-1.4-19.9-.9-29.3l.3-7.8,12.5-7.7c6.2-3.8,13.2-7.2,14.7-7.5,1-.2,8.3-4.3,15.7-9.5l.6-.4c7.3-4.7,14.9-9.5,17.2-10.6,1.4-.8,2.2-1.4,2.3-2,.2-.5,0-1.3-.8-2.6-.4-.8-.8-1.3-1.3-1.7-2.5-2.1-7.6-.3-18.2,6.3-3.9,2.3-38,22.4-41.6,19.4h0c-1.2-2.5,2.7-27.6,6.4-42.6,6.6-28,6.8-40.9,5-43.5-.7-.9-1.3-1.6-1.8-2.1-.9-.8-1.4-.6-1.5-.5-2.8,1-5.4,14-7.6,26.5-.5,2.6-4.7,25.7-7,27.3-.7,.5-1.8,1-3.1-.1-2.2-1.9-6.4-9.1-18.6-30.9-5.6-10-9.6-15.9-12.7-18.5-1.5-1.3-2.9-1.8-4.1-1.6-1.6,.3-1.8,.8-1.9,1-.6,1.5,2,5.4,3.9,8.2,3.6,5.1,11.3,18.9,13.5,23.1,4.5,8.2,11.3,19.9,15,25.1l6.9,10.1-1.6,20.4c-1.2,11.8-1.4,30.3-.9,40.7,.9,11,.9,21.5,.8,22.8-.6,2.1-10.2,10.6-15.9,15.3-29.6,23.5-48.8,40.2-68.5,59.4-9.8,10.1-19,19-19.8,19.5-.8,.6-1.7,.5-2.4-.1-4.1-3.4-5.6-28.8-5.3-52.3,0-3.4-.1-8.7-.3-14.6-.6-24.3-.5-34.7,1.5-36,.4-.3,22.5-21.6,26.7-31.6,.9-2.2,.6-2.6,.5-2.7-.3-.4-.6-.7-.9-1-.7-.6-1.4-.9-2.2-.8-2.2,.3-26,27.5-26,27.5,0,0-3.9-17.5-5.1-29.5,.7-2.6,2.4-6.5,5.2-12.4,6.5-13.6,7.3-14.6,23.5-28.6,8.6-6.7,15.8-18.9,16.1-25.9-.1-3-.7-5.8-1.9-6.4-4-2.1-21.8,9.6-31.4,20.8-3.4,4-6.4,7.1-7.1,6.8-.9-.5,31.8-91.5,7.8-107-6.7-4.3-17.1,4.4-21.3,17.4-2.6,8,6,58.2,5.5,65.8-.6,7.7-.8,14.8-.5,15.7,.5,2.1-.4,13.9-1.3,14.1-.4,.1-3.1-4.9-6.2-11.2-2.7-6.5-8.7-15.8-12.7-21.1,0,0-11.4-16.2-16.4-20.3-24.3-19.9-39.5-12.3-37.1,1.3,1.2,7.2,2.3,8.8,7.2,13.9,3.5,3.3,11.5,8.9,17.7,12.9,22.1,14.1,25.9,18.3,34.5,38.3,2.7,6.2,6.6,15.8,10.1,23.2,1,14.2,.8,22-.6,23-1,.7-2.1-.3-2.5-.6-3.2-2.7-9.6-12.6-14.9-23.1-1.9-4.1-5.1-8.3-8.3-11.1-1.9-1.6-3.7-2.5-4.6-2.3-1.1,.3-1.8,.7-2,1.4-.8,2,1.2,6.3,5.9,13,3.7,5.3,9.3,14.5,12.6,20.4,3.8,7.4,12,14.4,15.1,17,1.1,.9,1.4,1.2,1.5,1.4,1.8,2.5,3.1,26.3,2.9,43.2,0,15.2,1.7,48.1,3.7,63.4l1.1,9.6-10.6,10.3c-14.1,13.8-24.9,26.3-35,40.7-6,8.6-12.2,17.8-17.9,26.3-19.5,29-23.3,34-25.6,33.2-1-.9-1.6-4.3-1.8-5.4-.1-.8-.3-2.2-.6-3.9-.5-3.3-1.1-7.7-1.7-11.6-1-5.9-2.5-19.5-3.7-30.5-.8-10.3-2.6-26.9-4-37.9-3.6-27.6-3-34.1,4.1-43.1,13-15.8,14.5-17.2,24.2-14.5,4.4,1.5,12,5.1,16.3,8,7.7,4.5,10.4,4.3,11.3,3.9,.2,0,.7-.4,.8-1.6,.1-1.4-1-3-3.1-4.8-2.5-2.1-6.7-4.6-12.6-7.6-3.9-1.7-8-4.1-9.9-5.6-.7-.6-1-1-1.1-1.4-.3-1.5,1.3-5.2,2.4-7.3,2.5-3.4,2.4-4.7,.6-7.1-.6-.9-1.1-1.5-1.5-1.9-.7-.6-1.2-.5-4.4,2.2-5.9,4.7-21.8,22.6-25,28.1-1.1,1.8-2.2,2.8-3.2,2.9-.6,.1-1.2,0-1.7-.5-1.2-1-1.9-3.7-2.1-8,.4-4.5-.4-13.4-.7-17l-.4-3.8c-1.1-11.4-4.2-41.6-3.3-53.3,0-.7,.1-1.2,.2-1.8-2.8-.7-5.6-1.8-8.3-3.5-.4,6.1-.5,12.5-.3,18.1,0,3.3-.1,10.5-1.5,11.5-2.5,1.8-12-4.3-16.6-8.1-.7-.6-1.3-1.1-1.9-1.7-3.2-3-4.4-5.2-5.3-9.7-1.8,3.5-4.2,6.7-7,9.5,17.1,12.9,24.5,18.7,28.5,22,2.4,2,3.6,3.2,4.3,4.2,1.3,1.9,3.2,18.3,4.3,32.8,.8,10.8,1.7,22,2.7,32.9-12.2-10.2-29.8-25-35.3-28.4-1.4-.7-6.1-4.5-10.3-7.8-17.3-14.4-23.2-17.7-33.2-19.4-7.7-1.3-12.3,.2-13.1,3.5-1.2,5.1,.2,11.2,5.4,17.9,7.6,10.6,11.2,12.1,31.5,15,14.4,2.1,44.2,19.5,55.9,27.5,2,21.3,4,40.2,5.1,49.8,2.8,21.6,5.8,49.5,6.7,62,.9,11.2,.5,12.6-7.3,26-4.3,7.5-10,17-12.2,20.7-1.6,3.7-14.7,28.2-24.2,48.4-1.3,2.7,.4,5.8,3.4,6.4,1.3,.2,5.7-3.1,6.7-5.3,7.8-18.3,17.4-37.5,20.6-42.8,4.8-7.7,41.9-67.2,46.3-70.8,3.1-2.5,14.9-7.5,29.2-13,10.9,8,32.8,20.7,42.2,26.4,23.3,13.4,41.9,17.3,51,9.8,7.5-6.4,6.8-13.1-2.7-21.1-5.8-4.9-10.5-6.8-26.2-10.8-5.5-1.5-33.5-6-52.7-8.6,14.1-5.1,29-9.9,39.9-12.7,22.8-5.8,34.7-9.6,47.4-14.8,6.2-2.4,14-4.4,16.6-3.7,2.7,.3,11.2,7.3,14.7,10.2,6.9,5.8,15.2,13.5,18,17.5,1,1.4,2.1,2.6,3.3,3.6,2.5,2.1,4.6,2.7,5.4,2.3,.1,0,.5-.2,.6-1,0-3.2-5.7-11.5-18.6-22.9-1.6-1.5-9.7-9-9.6-11.2,0-.7,.4-1.2,1.3-1.8,6-3.6,38.4-5.8,43.9-3,.5,.3,1.8,.2,2.5-.2,.2-.2,.3-.4,.4-.7,0-1.1-1.1-2.9-2.9-4.4-1.5-1.3-3.3-2.1-4.7-2.2-12.8-1.2-26-1.1-32,.2-4,1.1-9.4,1.4-11.3,1.2-3.6-.1-22.7,5.2-29.9,8.1-1.9,.9-3.4,1.3-4.1,1.2-3,1.2-18.5,5.8-35.3,10.6,8.2-6.2,18.2-15,23.3-19.2,15.2-13.5,32.4-43.8,28-55.9-3.8-10-9.3-12.9-17.5-8.6-5,2.6-17.9,21.7-24.1,33.4-2.9,5.3-17.2,41.4-20.8,53.5-15.7,4.6-30.4,8.9-34.7,10.5-9.6,3.6-20.4,7.3-22.6,7.7-2.1,.5-3.2,.6-3.9,0-.9-.8-.5-2.2-.1-3.5,.8-1.9,5.1-7.2,8.7-11.3,2.1-2.7,4.7-5.9,7.1-8.8,2.1-2.5,4-4.9,5.3-6.6,5.3-6.8,14.9-18.3,24.5-29.4,3.6-4.1,17.9-19.3,19.6-20.5,1.1-.8,5.7-5,10.9-9.9l5.4-5c44.5-42.6,49.1-46.4,55.5-45,1.4,.2,7.5,0,16.2-.6,6.4,10.7,19.3,27.5,24.8,35.3,14.9,19.3,30.3,28.7,43,24.9,10.5-3.3,13.4-9.5,8.6-19.6-2.9-6.2-6.3-9.4-19-17.9-4.3-3-27-15.3-43.7-23.6,2-.2,4.1-.3,6.3-.5,38.6-4,59.7-4,64.3-.3,.2,.1,.4,.3,.7,.5,2.5,2.1,6.3,8,11.5,17.9,4.8,9.5,10.8,19.1,13.7,22.6,2,2.5,3.3,4.1,4.3,5,1.1,.9,1.5,.9,3.1-.2,.9-.6,1.4-1,1.4-1.5,.2-1.1-1.7-3.8-4.3-7.6-7-10.5-17.9-28.6-17.2-32.7,.7-2.9,4.4-2.8,12-1.3,7,1.3,13.7,2.5,19,3.2,2.1,13.1,11,37.3,17,43.4,13.9,14.6,17.6,17.7,21.2,16.9,5.1-1.5,4.2-15.9-1.8-24.4-1.8-3-24.2-32.8-24.2-32.8,0,0,116.6,14.3,114.2-9.5Z" fill="#425260"/><path d="M1406.8,98.6c-19.6,4.8-19.5,35.7,0,41.4,31.8,9.2,41.3-43.5,0-41.4Z" fill="#c16b5d"/><path d="M1154.1,231.3c-19.6,4.8-19.5,35.7,0,41.4,31.8,9.2,41.3-43.5,0-41.4Z" fill="#c16b5d"/><path d="M1106.7,253.9c-19.6,4.8-19.5,35.7,0,41.4,31.8,9.2,41.3-43.5,0-41.4Z" fill="#c16b5d"/><path d="M1201.9,286.8c-19.6,4.8-19.5,35.7,0,41.4,31.8,9.2,41.3-43.5,0-41.4Z" fill="#c16b5d"/><path d="M1222.4,194.7c-19.6,4.8-19.5,35.7,0,41.4,31.8,9.2,41.3-43.5,0-41.4Z" fill="#c16b5d"/><path d="M1303.5,205.6c-19.6,4.8-19.5,35.7,0,41.4,31.8,9.2,41.3-43.5,0-41.4Z" fill="#c16b5d"/><path d="M1451.7,161.3c-19.6,4.8-19.5,35.7,0,41.4,31.8,9.2,41.3-43.5,0-41.4Z" fill="#c16b5d"/><path d="M1564.3,155.5c-19.6,4.8-19.5,35.7,0,41.4,31.8,9.2,41.3-43.5,0-41.4Z" fill="#c16b5d"/><path d="M1551.9,209c-19.6,4.8-19.5,35.7,0,41.4,31.8,9.2,41.3-43.5,0-41.4Z" fill="#c16b5d"/><path d="M1526.2,258.6c-19.6,4.8-19.5,35.7,0,41.4,31.8,9.2,41.3-43.5,0-41.4Z" fill="#c16b5d"/><path d="M1486.7,354.3c-19.6,4.8-19.5,35.7,0,41.4,31.8,9.2,41.3-43.5,0-41.4Z" fill="#c16b5d"/><path d="M1404.7,400c-19.6,4.8-19.5,35.7,0,41.4,31.8,9.2,41.3-43.5,0-41.4Z" fill="#c16b5d"/><path d="M1388.3,443.5c-19.6,4.8-19.5,35.7,0,41.4,31.8,9.2,41.3-43.5,0-41.4Z" fill="#c16b5d"/><path d="M1221.1,337.5c-19.6,4.8-19.5,35.7,0,41.4,31.8,9.2,41.3-43.5,0-41.4Z" fill="#c16b5d"/><path d="M1343.5,98c-19.6,4.8-19.5,35.7,0,41.4,31.8,9.2,41.3-43.5,0-41.4Z" fill="#c16b5d"/></g><g><path d="M1402.8,861.1c31.9-32.2,57.9-79.6,65.3-124.5,8.5-51.8-4.5-94.2-26.3-140.5-22.5-47.7-100.5-98.1-150.4-107.5-23.6-4.4-78.6-.7-102.1,6.2-77.9,22.9-128.4,108-144.5,182.5-7.9,36.7-7.6,78.7,9.9,112.8,12.3,24.1,33.5,55.7,53.3,75,33,32.2,87.7,55.7,133,60.8,58.8,6.7,121.5-23.3,162-64.8Z" fill="#c16b5d"/><path d="M1383.5,647.5c-7.9-8.6-8.8-13.5-3.7-18.2,5.5-5,6.2-14.4,1.5-18-3.6-3.2-5.9-3.2-13.2,1.3-4.6,2.8-9.6,5.2-10.7,4.8-1.1,.3-2.5-3.5-2.7-7.6-1.5-8.7-10.1-19.6-16.1-19.8-1.9-.5-4.1,.2-5.3,1.3-2,1.8-2.5,14.5-.7,16.5,4.3,4.7,0,7.1-10.8,7.1q-12.8,.2-13,6.2c0,7.1,8.8,15,22,20.8l12.2,4.6-.7,15.7c-.3,15.4,2.8,23.4,9.3,21,3.8-2.1,13.5-16.7,15.7-24.5,1.3-4.8,1.7-5.2,6.9-2.7,2.9,1.6,6.2,3.6,7.3,4.8,1.1,1.2,2.9,1.6,4.5,.9,5.7-2.4,5.1-6.2-2.4-14.4Z" fill="#4f3734"/><g opacity="1"><path d="M1169.1,765.3c2-1.8-.7-10.9-3.3-11.4-3.7-.9-8.8,4.5-7.5,8.3,1.4,3.1,8.4,5.2,10.8,3.1Z" fill="#914543"/><path d="M1128,795.9c-6.4-.6-15.1,11.7-11.2,16,3.2,3.5,8.9,1.9,13.3-4.3,4.7-5.8,3.8-10.7-2.1-11.7Z" fill="#914543"/><path d="M1177.7,570.9c7.9-.8,14.9-15.1,10.2-20.2-1.8-2-4.4-3.2-5.9-2.5-2.7,1-10.5,9.7-13.8,14.8-2.1,4,3.8,8.8,9.4,7.9Z" fill="#914543"/><path d="M1097,757.4c-2.6,.3-5.7,1.6-6.5,2.4-3.1,2.9-1.9,9.7,2.5,12.1,3.3,2,4.8,1.3,8.4-2.6,5.5-5.8,2.8-12.6-4.4-11.8Z" fill="#914543"/><path d="M1133.7,723.7c-1.7-5-6.8-6.7-12.6-4.3-6.9,2.7-8.9,6-5.7,9.5,6.8,7.4,20.5,3.5,18.2-5.2Z" fill="#914543"/><path d="M1185.4,593.3c-6-.3-8.3,1.9-9.8,9-1.4,6.3,4.3,14.1,10.3,14.3,5.6,.6,10.7-5.6,9.9-12-.8-7.2-4.4-11.1-10.4-11.3Z" fill="#914543"/><path d="M1113.3,665.4c-5.8-4-10.9,.7-9.8,9,1.9,8.3,7.4,10.5,13.7,4.7,5.1-4.7,4.1-8.8-3.9-13.7Z" fill="#914543"/><path d="M1131.9,614.4c-6.4-.6-10.3,2.9-10.2,10.1-.2,3.7,1.6,6.5,4.9,8.5,3.7,2.4,5.5,2.1,9.4-1.5,8.6-7.9,6.7-16.2-4.2-17.1Z" fill="#914543"/><path d="M1168.1,700c2.2,2.3,4.8,2.8,6.7,1.8,3.8-2.1,2.2-7.8-2.6-9.9-4.8-2.8-8,3.8-4.1,8.1Z" fill="#914543"/><path d="M1180.7,649.5c-6.4-.6-10.7,5.6-6.8,10.6,2.8,4.6,7.3,4.8,12,.5,3.1-2.9-.3-10.5-5.2-11.1Z" fill="#914543"/></g></g><g><path d="M953.3,804.4c8.5-25.3,4.9-51.1-8.6-71.5,4.4-28.1,2.2-55.3-14-71.6-9.1-9.2-44.1-31.6-62.8-33.7-4.7-46.3-73-74.4-123.9-46.3-11.4-11.3-21.3-17.6-36.7-22.5-42.3-13.5-92.9,8.7-117,44.8-4.9,7.4-5,24.6-9.7,30.4-33.8-2.6-93.4,39.9-102.7,76.2-9,35.6,3.7,75.1,22.8,105.2,1.8,2.9,3.8,5.3,5.7,7.8-4.3,5.4-10,10.9-12.3,14.5-5,7.6-8.4,14.7-10.8,23.5-11.7,42.8,2.9,86.4,41.4,109.8,16.3,9.9,35,14,53.9,14.3,15.7,41.2,91,64.7,126.4,30.2,13.4,4.7,25.7,5.8,43.6,6.9,42.8,2.6,99.5-13.6,118.5-56,.7-1.5,1.1-3,1.7-4.5,40.5-8,71.3-47.6,71.3-95.5s-2-23.4-5.5-34c8.5-8.3,15.6-17.8,18.9-28Z" fill="#914543" opacity="1"/><path d="M612.3,842.7c-6.2-14.9,.6-40,4.5-49.4,3.5-8.6,.3-11.8-7.4-7.6-4,2-33.5,47.3-24.5,66.2,19.6,40.8,54.7,37.3,60.8,37,4.7-.3,10.4-5.3,9.6-8.9,0-.9-36.5-20.9-43-37.4Z" fill="#c16b5d"/><path d="M684.6,680.2c6.7,.4,10.4-13.1,4.5-15.5-11-4.5-46,4-61.4,14.6-11.2,8.2-25.2,25.8-30.5,38.7-3.7,9-4.1,29.9-.6,38.2,1.6,3.9,3.4,7.3,4.2,7.7,3.1,1.3,10.5-4.4,12.9-10.3,3.7-9,18.6-33.1,25.4-41.8,3.5-4.1,9.3-10.4,13.4-13.7,8.6-7.5,27.7-18.4,32.1-17.9Z" fill="#c16b5d"/><path d="M867.1,839.5c-6.4,1.7-4.8,13.1,1.6,13.2,11.9,0,41.2-17,51.5-29.7,7.3-9.6,13.8-27.3,13.9-38.7,0-8-7.4-24-13.7-29.2-2.9-2.4-5.9-4.6-6.7-4.6-3.4,0-8.1,6.5-8.1,11.7,0,8-4.9,30.8-7.9,39.4-1.7,4.1-4.7,10.7-7.3,14.5-5.1,8.3-18.8,22.4-23.1,23.4Z" fill="#c16b5d"/><path d="M772.9,959.4c-8.5,.4-8.6,13.4-.4,14.9,15.3,2.7,56.4-9.6,72-21.4,11.2-9,22.9-27.1,25.1-39.7,1.6-8.8-5.1-28.1-12.3-35.3-3.3-3.4-7.9-7.6-7.8-6.5,2.5,38.2-38.5,63.7-42.5,67.3-8.2,8-28.5,20.5-34.1,20.7Z" fill="#c16b5d"/><path d="M759.1,632.9c4.4,5,16.6-1.9,14.1-7.8-4.6-10.9-35.3-29.7-53.6-33.1-13.7-2.1-36,.4-48.8,5.7-8.9,3.7-23.9,18.3-27.3,26.6-1.6,3.9-2.8,7.6-2.4,8.4,1.3,3.1,10.5,4.3,16.3,1.9,8.9-3.7,36.4-10.2,47.3-11.5,5.3-.4,13.9-.8,19.1-.2,11.3,.8,32.5,6.6,35.3,10Z" fill="#c16b5d"/><path d="M584.7,686.3c6.1-2.5,2.9-13.7-3.4-12.8-11.8,1.5-38.5,22.4-47,36.4-5.9,10.5-10,28.9-8.5,40.2,1,7.9,10.6,22.8,17.6,27.1,3.2,2,6.5,3.7,7.3,3.6,3.4-.4,7.1-7.5,6.5-12.7-1-7.9,.7-31.2,2.6-40.2,1.2-4.3,3.3-11.2,5.3-15.4,4-8.9,15.6-24.7,19.7-26.3Z" fill="#c16b5d"/><path d="M836.2,722.6c-3.5,3,29.5,25.6,26.9,38.7-4.2,21-39.4,56.3-1.2,38.3,68.1-32.2-5.5-95.5-25.7-77Z" fill="#c16b5d"/><path d="M820.1,778.3c-3,0-7.3,10.1-11,26.9-6.3,29.1-58.8,58.4-61,58.4-2.1,0-4.7,1.2-6,2.5-3.9,4.6,.7,7.6,10.9,7.8,4.7,0,10.6,.6,13.5,1.5,11,3.5,26.7-4.3,40.5-20.6,15.1-17.6,23-39.5,22-60.2-.3-11.4-3.2-16.1-9.1-16.2Z" fill="#c16b5d"/><path d="M718.4,678.7c9.7-6.2,29.6-5.6,45,1.6,16.4,7.5,27.1,15.7,36.2,28.1,10.1,13.3,9.8,13,15.6,11.3,3.7-.7,4.8-2,6.2-6.4,5-18.6,2.1-30.2-12-42.4-18-15.6-56.7-22.3-79.7-14.3-8.5,3.3-21.9,17.4-20.4,22.1,1.8,4.4,2.8,4.6,9.2,.1Z" fill="#c16b5d"/><path d="M820.2,642.7c11.3-.2,26.9,9,34.9,21,8.6,12.6,12.3,23.3,12.2,36.3,.2,14,.1,13.7,5.7,15,3.4,1.1,5,.7,8.7-1.9,15-11.2,19.4-20.9,15.5-35.9-5.1-19.2-31.9-41.1-55-45.5-8.7-1.3-27.7,2.9-29.3,6.9-1.2,3.9-.5,4.6,7.2,4.1Z" fill="#c16b5d"/><path d="M583.6,916.7c-11.2-2-24.6-14.1-30.1-27.4-6-14.1-7.5-25.3-4.9-38,2.5-13.8,2.6-13.4-2.7-15.8-3.1-1.8-4.8-1.7-8.9,.2-16.9,8.1-23.1,16.7-22.2,32.2,1.2,19.8,23.3,46.6,45,55.4,8.3,3,27.7,2.6,30.1-1.1,1.9-3.6,1.4-4.4-6.3-5.5Z" fill="#c16b5d"/><path d="M717.4,973.3c-9.7,6.1-29.7,5.4-45-1.9-16.3-7.6-27-16-36-28.4-10-13.4-9.7-13-15.5-11.4-3.7,.7-4.8,1.9-6.2,6.4-5.2,18.6-2.3,30.1,11.7,42.5,17.9,15.8,56.5,22.8,79.6,14.9,8.5-3.3,22.1-17.2,20.6-21.9-1.7-4.4-2.7-4.7-9.2-.2Z" fill="#c16b5d"/><path d="M794.1,885.6c-2.3-2.3-4.1-2.2-9,.9-27.3,16.3-55.3,17.6-96.7,3.8-13-4-14-3.9-15.6-.9-1.2,1.8-1.3,5.4-.5,8,2.1,5.9,9.8,17.3,14.5,21.5,5.7,5.1,29.2,14.7,39.7,15.9,15.2,2.1,29.9-1.5,43.3-10.6,9.8-6,15.9-13.1,22.6-26,5.2-9.3,5-9.9,1.9-12.5Z" fill="#c16b5d"/><path d="M782.1,778c7.7-19.7,7.8-23.4,1.4-36.9-3.6-7.9-5.9-10.2-13-14-17.1-9.8-49.1-8.7-75.4,2-18.6,7.5-40,26.1-50.2,43-11.6,20.4-13.6,26.5-11.2,38.4,2.3,10.1,5.9,18,11.8,23.6,7.2,7.1,34.7,14.7,48.9,13.7,19.8-1.5,41.2-12.4,61.3-31.1,15.1-14.4,18.7-19.8,26.4-38.6Z" fill="#4f3734"/><path d="M685.1,781.3c-1.7-7.8-4.4-11.3-8.5-11.8-14.4-2.1-20,13.5-20,15.2,0,4.4,4.1,11.5,7.1,12.9,4.7,2.4,13.5,2,16.9-.7,5.1-4.1,5.8-7.4,4.4-15.6Z" fill="#c1ab8e"/><path d="M716.2,777.6c8.1-4.7,9.8-15.9,3.4-22.3-4.1-4.1-7.1-4.1-17.6,1-5.4,2.4-6.8,4.1-7.8,7.8-1.4,6.1,1.7,11.5,8.1,14.2,5.8,2.7,8.8,2.4,13.9-.7Z" fill="#c1ab8e"/><path d="M704.7,811.9c1.4-1,2.7-4.1,3-6.8,.7-3.7,.3-5.4-2-7.8-3.7-3.7-12.5-3.7-15.6,.3-2.7,4.1-2.7,12.5,.3,14.6,3.4,1.7,11.5,1.7,14.2-.3Z" fill="#c1ab8e"/><path d="M688.9,759c7.1-1.7,8.8-15.6,2.7-20-4.4-3-8.5-2.4-11.5,2-5.1,6.4-5.4,11.5-1.4,15.6,3.7,3.4,5.1,3.7,10.2,2.4Z" fill="#c1ab8e"/><path d="M671.7,832.8c3.7,6.3,17.5,3.8,19.9-3.3,1.6-5.1-.2-8.8-5.3-10.4-7.6-3-12.6-1.8-15.3,3.3-2.1,4.6-2.1,5.9,.7,10.4Z" fill="#c1ab8e"/><path d="M751.4,769.5c-4.7,4.4-5.4,11.2-2,15.9,3.7,5.1,17.9,3,20.3-3,4.7-12.5-9.1-22.3-18.3-12.9Z" fill="#c1ab8e"/><path d="M752.4,747.6c.3,3,1.7,6.8,2.7,8.5,1.4,2,3.4,3,6.4,3,6.1,0,9.1-3.4,9.1-9.8,0-9.8-8.5-14.9-16.2-9.5-2.7,1.7-3,2.7-2,7.8Z" fill="#c1ab8e"/><path d="M715.6,792.8c-.3,4.4,0,5.4,2.7,6.4,8.1,3,15.9-1,15.9-8.8s-6.8-10.2-13.9-5.4c-3.4,2-4.4,4.1-4.7,7.8Z" fill="#c1ab8e"/><path d="M728.5,746.9c-4,1.9-4.7,2.7-4.3,5.5,1.3,8.6,8.7,13.4,15.5,9.5,6.5-3.7,5.5-10.9-2.1-14.7-3.4-1.9-5.7-1.8-9.1-.3Z" fill="#c1ab8e"/><path d="M709.6,734.7c-1.7,2.9-1.8,3.7-.3,5.3,4.6,4.8,11.3,4.6,13.9-.8,2.5-5.1-1.3-9.2-7.8-8.3-3,.3-4.4,1.3-5.8,3.8Z" fill="#c1ab8e"/><path d="M740.8,796.8c-1.7,2.9-1.8,3.7-.3,5.3,4.6,4.8,11.3,4.6,13.9-.8,2.5-5.1-1.3-9.2-7.8-8.3-3,.3-4.4,1.3-5.8,3.8Z" fill="#c1ab8e"/><path d="M651.2,810.8c-2.6,2.2-2.9,2.9-2,4.9,2.7,6,9.2,8,13.4,3.8,4-4,1.8-9.2-4.6-10.4-2.9-.7-4.6-.2-6.8,1.7Z" fill="#c1ab8e"/><path d="M710.4,831.9c6.4,4.7,19.3-1,23-10.2,2.4-6.4-3.4-13.5-11.2-13.5s-5.1,3-8.5,6.8c-7.4,7.8-8.5,13.2-3.4,16.9Z" fill="#c1ab8e"/></g><g><path d="M1197.5,565.6c-4.4-28.3-18.8-42.2-48.5-43.5-13.5-.6-28.7-.7-42,1.9-3.5,.7-30.5,8.7-30.5,10.5,0-10.4,16.3-27,21.8-35.5,7.7-11.8,15.6-23.6,20.7-36.5,6.9-17.4,20.8-69-12.6-70.8-28.7-1.5-54,36.6-67.4,55.5-3.1,4.3-35.9,56.8-36.6,56.4-4.1-1.9-6.8-33-8.2-38.5-4.2-17.2-8.4-34.3-14.2-51.1-11.7-33.6-31.6-58.8-68.9-27.2-25.4,21.5-27.8,51.5-23.1,81.2,2.1,13.2,6.6,26.2,11.2,38.8,5.2,14.2,20.9,35.6,20.9,50.1,0-5.4-44.7-29.3-50.1-31.4-25-9.7-55.3-7.2-78.2,6.2-22.5,13.2-28.1,41.3-18,63.4,4.5,9.8,12.3,18.3,21.7,24.4,10.8,7,31.4,7.4,39.9,15.3-3.4-3.2-57.9,36.5-63,40.6-19.2,15.8-44.3,47.2-21.5,69.7,19.5,19.3,60.1,9.5,82.6,1.1,16.7-6.2,33.2-14.1,48.6-22.7,7-3.9,27.4-22.8,33.9-22.8s1.1,55.8,1.4,60.3c1.3,19.8,7.6,49.7,29.2,59.2,54.1,23.9,55.2-56.7,68.5-81.1-.8,.8,16.6,31.3,17.6,32.7,10.4,15.4,26.6,30.4,44.1,39,48.3,23.7,54.6-51.2,47.7-78.9-5.3-21.3-15.9-41.4-27.4-60.3-3.9-6.4-23.5-27.2-23.1-34.8,.4-6.6,11.8-6.7,19-8.8,29.6-8.7,109.1-24.7,104.5-62.3Z" fill="#e0adad"/><path d="M951.9,628.6c-2.5,7.3-.4,11.2,7.2,14,7.6,2.8,9.3,2.4,20.7-1.7,14.8-5.9,29.6-20.3,38.8-37.4,4.6-9.1,5.9-17.8,3-20.3-1.7-1.7-18.6-2.1-29.6-1-8,1-14.4,5.6-24.1,17.8-7.2,9.1-12.2,17.8-16,28.7Z" fill="#455947"/><g><path d="M972.8,554.6l.3-4.8c.3-2.5,0-12.4-.7-21.9-1.4-15.5-2.1-19.7-3.8-18.4-1.7,1.9,0,32,2.4,39.9l1.7,5.1Z" fill="#c16b5d"/><path d="M941.6,600.3c-5.1-5.4-9.3-7.3-48.3-23.1-4.5-1.9-11.7-6.3-16.5-9.5-7.2-5.4-8.2-5.7-9.9-4.1-1.7,1.6-1.7,2.2,2.1,6.7,2.4,2.9,6.9,6,9.9,7.3,6.9,2.9,8.9,6.3,2.7,5.4-8.2-1.6-24.7-8.6-31.2-13-6.9-4.8-10.6-5.7-12-2.2-1,2.5,1,4.4,8.6,9.2,11.7,7.3,23.7,11.4,48.3,16.5,16.5,3.5,32.9,9.5,32.9,11.7s-2.4,1.3-17.1-2.2c-7.5-1.6-18.2-3.5-23.3-4.4-17.8-2.9-41.1-9.2-53.1-14.6-2.7-1-6.9-3.8-9.3-5.7-5.1-4.1-5.5-4.4-7.9-2.2-8.9,8.2,20.2,21.2,65.5,28.8,8.6,1.6,17.5,3.2,19.9,3.8,2.4,.6,6.9,1.9,9.9,2.5,3.1,.6,5.8,1.9,5.8,2.5s-7.2,6-16.1,12.4c-14.4,10.1-24.3,17.4-45.6,33-4.1,3.2-13.7,10.8-21.3,17.1-7.5,6-19.9,15.2-27.4,19.7-11.3,7-13.7,9.2-13.7,11.7s.7,3.2,3.1,3.5c3.8,.6,23.7-13.3,47-33,9.6-7.9,19.5-15.9,21.9-17.4,2.7-1.9,12.7-8.9,22.3-15.9,30.9-22.5,38.4-27.3,44.2-27.3s5.1-.6,5.8-2.5c.7-3.2,4.5-3.5,4.5-.3s-1.7,3.8-3.4,6.3c-3.1,3.5-4.5,4.1-8.9,4.1s-5.8,.6-7.9,3.8c-1.4,1.9-11,9.5-21.3,16.8-33.3,22.8-61.7,45.3-73.4,57.4-5.5,5.7-7.5,11.4-4.8,13.6,1.7,1.9,4.5,.9,6.9-2.5,7.9-12.4,9.6-13.6,40.5-37.4,14.4-11.1,36.7-26.3,38.4-26.3s-2.4,5.7-13.4,17.4c-5.1,6-12,13.6-15.1,17.4-3.1,3.5-7.5,8.6-9.9,11.4-5.8,6-7.9,10.5-5.8,12.7,2.4,2.9,3.8,2.2,8.2-3.5,7.2-9.5,18.5-22.8,21.9-26.3,1.7-1.9,8.2-8.9,14.4-15.9,6.2-7,16.1-17.7,22.6-24.1,14.4-13.9,20.6-21.2,20.6-24.1s-3.1-6.3-11.3-15.2Z" fill="#c16b5d"/><path d="M981.8,722.6c0,21.6,2.7,44.4,5.1,45.3,1,.3,2.7-.3,4.1-1.3,1.7-1.6,1.7-2.9,.3-8.2-.7-3.2-2.1-20-2.7-37.1-.7-17.1-1.7-33.3-2.4-36.1-.7-2.9-1.7-6.7-2.1-8.2-.7-2.9-2.4-3.8-9.3-5.7-6.2-1.6-8.9-1.9-9.9-.9-5.8,4.4-15.8,28.2-19.5,45.6-1,5.4-2.7,12.7-3.4,16.2-.7,3.5-1.7,9.2-2.1,13-1,6-.7,6.7,1.7,6.7,4.1,0,5.5-2.2,7.2-14.6,1.7-13.6,6.2-31.4,9.9-42.2,3.1-7.9,8.2-15.5,9.9-13.9,1,.6-.3,7.3-4.1,26.3-6.2,28.2-9.3,61.8-6.9,70.4,.7,2.5,1.4,3.2,3.8,2.9,4.1-.3,6.2-9.2,3.1-12.4-1.7-1.9-2.1-4.4-1.4-15.5,.3-7.9,1.7-14.9,2.7-16.8,1-1.9,1.7-4.1,1-4.8-.7-.9,4.1-26,6.5-35.2,1.7-5.4,3.8-8.6,4.8-7.3,1.7,1.6,3.4,18.1,3.4,33.9Z" fill="#c16b5d"/><path d="M1018.4,558.1c2.7-3.2,3.1-3.2,3.1-.9s.7,3.5,1.7,4.1c3.4,3.5,3.8,2.9,9.9-14.9,4.8-14.9,26.1-48.2,39.1-61.5,8.6-9.2,12.7-15.5,11.7-18.4-.3-1.6-1.7-2.5-2.7-2.5-3.1,0-15.1,14.9-32.9,40.6-5.5,7.9-11,15.9-12.3,17.1q-2.1,2.5-2.1,0c0-1.6,1-3.8,2.4-5.1,1.7-.9,4.8-5.7,7.2-10.5,5.8-11.4,8.2-15.2,12-20.3,1.7-2.2,3.1-4.1,3.1-4.8s4.1-6,9.3-12.4c5.5-6.3,10.6-13.6,11.7-15.9,1.4-1.9,3.1-4.1,4.1-4.4,1.4-.3,2.7-2.9,3.8-5.4,1.4-4.1,1.4-5.1-.7-6.3-1.4-.9-3.1-1.6-3.8-1.3-1,.3-5.1,5.7-8.9,11.7-4.1,6-10.6,15.5-14.4,20.9-22.3,30.4-30.2,44.1-45.6,79.9-2.7,6-4.5,11.7-4.1,12.4,1.7,2.2,5.5,1.3,8.6-2.2Z" fill="#c16b5d"/><path d="M978.3,568.6l4.8-1.6-.7-8.2c-4.8-61.8-5.1-64.4-11.3-65.9-2.7-.6-4.5-9.8-6.5-32-1.4-14.6-5.1-24.7-9.3-24.7s-4.5,3.5-1.4,12.4c4.8,14.6,5.8,19.7,5.5,32.7,0,7,.3,21.9,1,33,.7,15.9,.3,19.7-.7,18.1-2.4-3.2-7.2-21.9-12.3-45-1.4-6.3-3.4-12.7-4.8-14.6-1-1.6-2.1-4.8-2.1-7.3s-.7-6.7-1.7-9.5c-.7-2.9-1.7-12.7-2.4-22.2-.7-16.5-.7-17.1-3.8-17.4-1.7-.3-3.4,.3-3.8,1.3-1.4,2.9,1.4,24.1,4.5,38.4,1.7,7,4.1,19,5.8,26.6,1.7,7.6,3.4,15.5,4.1,17.7,.7,2.2,2.1,8.6,3.4,14.6,3.1,15.2,16.1,48.2,21.6,54.2,1.7,1.9,4.1,1.9,9.9-.3Zm-9.6-59c1.7-1.3,2.4,2.9,3.8,18.4,.7,9.5,1,19.3,.7,21.9l-.3,4.8-1.7-5.1c-2.4-7.9-4.1-38-2.4-39.9Z" fill="#c16b5d"/><path d="M1003,561.3c2.4-.3,2.7-1.3,2.7-12.4s0-12-3.4-12-3.4,1-4.1,3.2c-1.7,5.4-1.4,18.4,.3,20,1,.9,2.7,1.6,4.5,1.3Z" fill="#c16b5d"/><path d="M1134.7,567.6c-2.7-.9-4.5-.9-7.9,.6-2.4,1.3-11,3.5-18.9,5.4-14.1,3.5-29.1,8.9-49,17.1-9.6,4.1-14.4,4.4-9.3,.6,3.8-2.5,31.9-15.2,44.6-20,5.5-2.2,13.7-4.8,17.8-5.4,8.9-1.9,11.7-4.4,7.2-8.2-2.7-2.5-3.1-2.5-6.9-.6-2.4,.9-5.5,1.9-6.9,1.9s-3.1,.6-3.8,1.3c-1.7,1.6-27.1,10.1-27.8,9.5-.3-.3,1-1.3,2.7-1.9,2.1-.6,3.8-1.9,3.8-2.5s3.1-2.5,7.2-4.4c4.1-1.9,9.6-4.8,12.3-6,5.5-2.5,6.5-5.7,3.1-8.6-2.4-1.9-6.5-.6-11.3,3.2-8.2,6.3-27.4,16.5-38.1,19.7-7.2,2.2-9.9,4.8-8.6,8.2,.7,1.6,2.1,1.9,5.1,1.6,5.5-.6,5.1,.9-.7,3.5-3.4,1.4-6.5,3.4-9,5.5,4.3,4,7.8,8.9,10.1,14.4,3.9-1.6,8.6-3.6,14.7-6.3,9.3-4.1,20.9-9.2,25.7-11.1,9.3-3.2,35.3-9.5,40.8-9.5s8.2-5.4,2.7-7.9Z" fill="#c16b5d"/><path d="M1029.1,637c-3.1-2.8-6.9-.3-5.5,4.1,1,3.5-.3,3.8-2.7,.6-4.1-5.1-7.9,1.9-4.8,8.9,.7,1.6,2.7,9.2,4.8,16.8,6.2,26.3,20.9,66.9,25,68.5,6.2,2.2,5.1-2.9-8.2-37.4-5.5-14-7.9-27.3-4.8-24.1,1,1,4.8,7.3,7.9,14,3.4,6.7,8.2,15.9,10.6,20.3,8.9,15.2,19.9,33.6,24.3,39.9,2.1,3.5,5.1,8.6,6.9,11.1,2.7,5.1,6.2,6,8.9,2.9,2.1-2.2-.3-7.3-5.1-12-5.8-5.7-15.8-19.3-18.2-25.7-1.4-3.2-3.8-7.6-5.1-9.5-2.7-3.5-7.2-12-7.2-13.6s-3.8-7.6-8.6-16.5c-4.5-8.9-7.9-16.2-7.5-16.8,.7-.3,1.4-.6,1.4-.3,5.5,6.7,17.8,23.5,19.9,27.6,1.7,2.9,3.8,5.7,4.5,6,1,.6,3.8,4.1,6.5,7.9,8.2,12.4,17.1,21.9,20.6,21.9s4.8-3.5-.3-7.9c-6.2-5.7-36-46.3-43.2-58.6-4.5-7.6-16.5-24.7-19.9-27.9Z" fill="#c16b5d"/></g></g></g></g></g></svg>