<svg width="479" height="960" viewBox="0 0 479 960" fill="none" xmlns="http://www.w3.org/2000/svg">
<path d="M-254.373 884.972C-73.4355 810.445 84.5989 697.719 216.996 553.596L253.425 511.239C253.425 511.239 318.505 607.649 358.033 677.356C197.405 859.357 -13.6869 996.352 -245.329 1068.93L-254.373 884.972Z" fill="#F253B2"/>
<path d="M-38.8937 266.103C-41.1177 269.316 -43.4151 272.733 -43.7224 276.629C-44.3568 284.683 -36.6417 290.617 -29.8031 294.917C-0.887493 313.095 28.0276 331.273 56.9432 349.452C78.6052 363.071 120.147 392.443 145.525 395.713C187.208 401.083 229.681 338.439 253.405 303.748C297.344 239.497 319.105 202.761 302.653 136.944C295.136 106.865 273.199 69.9107 249.767 49.6574C223.065 26.5774 194.107 10.2614 166.311 -3.7746C161.695 -6.1066 155.923 -9.86526 150.84 -6.83594C144.443 -3.02127 139.74 7.84271 135.581 13.856C124.523 29.8441 113.465 45.8321 102.407 61.8188C80.2896 93.7934 58.1735 125.769 36.0563 157.744C13.8375 189.867 -8.38124 221.989 -30.6005 254.112C-33.3651 258.108 -36.1297 262.105 -38.8937 266.103Z" fill="#F68730"/>
<path d="M17.6407 77.3534C83.5046 111.5 145.653 152.811 202.607 200.355C208.867 205.58 215.268 211.148 218.531 218.621C221.441 225.289 221.552 232.805 221.4 240.079C220.643 276.504 214.465 312.813 203.136 347.44C201.585 352.18 199.924 357.249 201.276 362.048C202.873 367.711 208.176 371.391 213.113 374.589C228.035 384.257 242.956 393.927 257.876 403.595C265.653 408.635 273.924 414.276 277.056 422.999C279.284 429.201 278.535 436.047 277.391 442.537C271.283 477.199 254.979 509.151 237.729 539.829C192.037 621.091 138.177 697.755 77.2234 768.293C68.5047 778.652 56.8526 790.399 45.938 790.076C35.024 789.753 25.2364 783.632 16.1041 777.647C-75.3151 717.732 -157.327 651.436 -236.493 579.401L-323.104 513.564C-329.796 508.477 -331.401 499.081 -326.781 492.059C-263.54 395.937 -102.791 138.476 -33.5438 57.868C-30.8246 54.7027 -26.2787 53.86 -22.599 55.8281L17.6407 77.3534Z" fill="#4D48A6"/>
<path d="M-2.7646 1027.62C16.1937 1072.36 36.2755 1117.91 69.7864 1153.11C108.51 1193.78 164.607 1217.77 220.737 1216.07C276.867 1214.36 331.981 1186.47 365.329 1141.29C398.676 1096.11 408.984 1034.39 390.628 981.324C385.031 965.137 377.001 949.914 368.788 934.884C352.228 904.584 334.781 874.771 316.473 845.493C309.233 833.914 301.731 822.265 291.58 813.128C275.185 798.371 253.165 791.367 231.349 788.096C172.768 779.312 110.835 795.736 64.3036 832.395C40.8771 850.85 21.5109 874.322 7.41457 900.58C0.406239 913.635 -5.30679 927.386 -9.57971 941.575C-11.7412 948.75 -13.5339 956.037 -14.938 963.398C-16.0844 969.408 -17.4489 975.72 -16.4864 981.848C-14.0052 997.643 -8.98335 1012.94 -2.7646 1027.62Z" fill="#5AC69D"/>
<path d="M284.995 401.529L282.073 399.693C290.055 386.997 288.384 378.077 281.612 362.917L279.916 359.165C273.248 344.472 263.165 322.253 267.575 306.809C271.859 291.767 282.948 281.649 293.665 271.861C307.384 259.337 320.335 247.505 318.912 226.34L322.355 226.105C323.887 248.936 309.712 261.892 295.993 274.405C285.627 283.877 274.912 293.66 270.893 307.763C266.832 321.987 276.595 343.501 283.06 357.735L284.761 361.516C290.941 375.335 294.573 386.295 284.995 401.529Z" fill="#161A16"/>
<path d="M428.021 142.988C418.581 191.156 369.695 233.724 321.524 224.285C273.356 214.849 244.147 156.979 253.587 108.808C263.024 60.6387 309.723 29.2401 357.888 38.6774C406.06 48.1161 437.457 94.8161 428.021 142.988Z" fill="#5AC69D"/>
<path d="M322.349 220.079L328.575 242.428L310.544 238.895L322.349 220.079Z" fill="#5AC69D"/>
<path d="M277.603 559.853C264.548 566.683 249.081 569.819 236.388 560.649C228.311 554.828 224.627 539.605 218.931 531.133C211.341 519.868 198.363 515.039 185.309 516.799C179.156 517.633 174.581 520.904 171.231 525.393C172.315 522.925 173.816 520.617 176.079 518.589C181.736 513.541 193.268 511.045 200.485 509.736C221.064 506.012 229.712 536.277 247.253 543.681C250.46 545.04 253.044 541.655 251.425 538.788C246.725 530.461 240.087 523.775 234.489 516.069C230.741 510.895 227.436 504.807 221.78 501.401C210.259 494.472 198.011 496.223 185.597 499.773C176.517 502.372 165.912 509.868 160.161 518.811C149.717 512.908 131.579 516.281 122.376 520.208C95.3797 531.736 97.1391 562.384 102.142 586.688C102.544 588.636 104.987 588.856 105.594 586.903C111.009 569.468 103.201 547.949 119.129 534.732C124.15 530.569 132.225 528.025 139.693 527.269C137.473 527.981 135.363 528.92 133.525 530.309C123.173 538.143 117.064 550.337 120.443 563.529C123.47 575.333 128.733 585.231 127.704 597.851C126.597 611.425 117.432 621.588 109.54 631.796C107.99 633.796 109.869 636.731 112.362 635.889C131.744 629.324 139.047 608.077 139.197 589.213C139.311 574.364 124.31 557.18 138.644 544.848C144.412 539.889 150.267 540.639 155.192 543.823C151.423 543.751 147.736 544.952 144.776 548.444C136.673 558.008 141.701 579.964 143.529 590.592C146.817 609.731 149.056 629.141 138.6 646.668C137.623 648.324 139.812 649.629 141.172 648.857C156.092 640.405 158.099 626.057 157.532 609.96C157.097 597.656 153.583 585.497 152.379 573.251C150.559 554.628 159.483 553.631 166.347 560.559C166.827 562.245 167.396 563.893 168.075 565.445C168.944 570.079 169.509 574.679 171.32 579.249C172.169 581.388 175.073 581.98 176.609 580.359C177.236 580.907 177.835 581.487 178.537 581.947C180.593 583.295 183.285 581.225 181.831 578.955C180.865 577.436 180.159 575.921 179.535 574.411C179.797 573.045 179.948 571.535 179.916 569.788C180.575 565.277 180.237 560.752 179.468 556.283C182.479 549.004 188.635 547.956 197.976 553.239C199.853 556.315 201.307 559.569 202.348 563.009C205.705 572.332 209.481 579.672 216.403 586.8C227.201 597.921 249.619 606.121 262.711 595.257C264.849 593.485 264.164 590.496 261.545 589.717C242.156 583.904 224.88 584.828 215.489 563.061C210.341 551.123 206.505 539.891 192.535 536.836C187.119 535.652 182.612 536.667 178.976 538.968C180.635 532.86 184.985 528.801 195.076 529.745C212.144 531.347 216.924 560.037 227.785 570.785C244.359 587.189 270.763 581.825 281.027 562.76C282.248 560.495 279.467 558.868 277.603 559.853Z" fill="#5AC69D"/>
<path d="M163.8 534.64L152.277 1022.71C152.277 1022.71 218.624 1035.13 326.444 997.212C434.268 959.3 478.245 908.091 478.245 908.091L163.8 534.64Z" fill="#DAE939"/>
</svg>
