<svg width="418" height="960" viewBox="0 0 418 960" fill="none" xmlns="http://www.w3.org/2000/svg">
<path d="M502.307 304.836C496.427 154.259 450.853 21.9027 380.84 -111.533L153.973 -31.5866C223.987 101.848 263.84 250.999 269.72 401.576L504.667 368.021L502.307 304.836Z" fill="#F253B2"/>
<path d="M389.346 1090.98C545.853 898.343 634.16 686.109 693.867 446.591L330.44 304.667C270.733 544.185 157.187 771.133 0.677246 963.771L323.533 1171.71L389.346 1090.98Z" fill="#F68730"/>
<path d="M310.52 513.645C291.72 512.436 285.347 493.16 282.2 478.752C280.973 473.195 279.8 467.645 278.627 462.119C275.467 447.127 272.187 431.632 268.013 416.389C263 398.051 256.96 383.46 243.773 371.897C226.52 356.749 215.28 339.229 209.4 318.335L213.173 317.276C218.84 337.42 229.693 354.323 246.36 368.956C260.267 381.161 266.587 396.332 271.8 415.355C276 430.713 279.293 446.261 282.467 461.305C283.627 466.836 284.8 472.361 286.013 477.923C289.147 492.196 294.787 508.711 310.773 509.739L310.52 513.645Z" fill="#161A16"/>
<path d="M279.56 157.368C296.2 217.476 264.813 293.629 204.707 310.267C144.587 326.907 78.5066 277.729 61.8799 217.62C45.2399 157.507 80.48 95.288 140.587 78.648C200.707 62.0093 262.92 97.2533 279.56 157.368Z" fill="#4D48A6"/>
<path d="M203.253 305.023L223.027 326.883L200.52 333.111L203.253 305.023Z" fill="#4D48A6"/>
<path d="M76.3599 524.723C76.3599 524.723 61.9599 500.829 46.9332 505.633L46.0798 516.701C46.0798 516.701 67.5332 516.541 78.3999 529.607C78.3999 529.607 63.9466 518.209 51.5332 524.925L55.0666 533.108C55.0666 533.108 73.1465 527.695 80.3065 534.936L76.3599 524.723Z" fill="#F253B2"/>
<path d="M75.5066 525.209C75.5066 525.209 62.24 500.668 74 490.167L83.9733 495.052C83.9733 495.052 72.9332 513.449 78.6799 529.445C78.6799 529.445 76.1866 511.209 88.2799 503.925L93.5333 511.131C93.5333 511.131 79.6933 523.952 82.2933 533.797L75.5066 525.209Z" fill="#F253B2"/>
<path d="M75.9333 524.967L113.72 763.069C113.72 763.069 147.053 763.201 196.053 735.204C245.067 707.205 261.867 678.417 261.867 678.417L75.9333 524.967Z" fill="#5AC69D"/>
<path d="M345.28 1014.71C243.947 1011.35 157.747 973.51 86.6799 901.2L352.187 647.639L345.28 1014.71Z" fill="#DAE939"/>
<path d="M384.253 656.673L377.907 643.773L389.747 636.96L380.613 630.42L389.707 615.457L375.853 618.221L374.547 602.48L360.853 613.529L354.307 596.759L348.453 614.412L334.147 608.133L340.787 621.793L325.707 625.92L335.667 633.451L323.427 642.615L335.96 644.321L329.013 655.811L344.68 652.1L345.56 662.752L353.04 656.691L359.347 671.649L363.2 665.756L373.627 672.233L372.92 658.019L384.253 656.673Z" fill="#4D48A6"/>
</svg>
